<?xml version="1.0" standalone="no"?>
<!DOCTYPE svg PUBLIC "-//W3C//DTD SVG 20010904//EN"
 "http://www.w3.org/TR/2001/REC-SVG-20010904/DTD/svg10.dtd">
<svg version="1.0" xmlns="http://www.w3.org/2000/svg"
 width="2648.000000pt" height="1034.000000pt" viewBox="0 0 2648.000000 1034.000000"
 preserveAspectRatio="xMidYMid meet">

<g transform="translate(0.000000,1034.000000) scale(0.100000,-0.100000)"
fill="#000000" stroke="none">
<path d="M26440 9435 l0 -905 -13220 0 -13220 0 0 -475 0 -475 13220 0 13220
0 0 -3790 c0 -3783 0 -3790 20 -3790 20 0 20 7 20 5170 0 5163 0 5170 -20
5170 -20 0 -20 -7 -20 -905z m-302 -1201 c42 -29 52 -65 52 -184 l0 -110 -34
-38 -34 -37 -1479 -3 c-1468 -2 -1478 -2 -1511 18 -47 29 -62 73 -62 180 0
100 14 148 51 174 21 15 152 16 1509 16 1330 0 1488 -2 1508 -16z m-23968
-172 l0 -89 -47 1 c-40 1 -49 5 -60 26 -24 47 1 100 48 100 24 0 29 4 29 25 0
16 6 25 15 25 12 0 15 -16 15 -88z m135 -3 l0 -84 -39 -3 c-48 -3 -76 19 -76
60 0 48 16 68 55 68 31 0 35 3 35 26 0 16 5 24 13 22 8 -3 12 -30 12 -89z
m2075 46 c4 -34 6 -36 19 -22 7 10 23 17 34 17 20 0 19 -1 -5 -27 l-27 -28 25
-28 c13 -15 24 -32 24 -38 0 -19 -28 -8 -46 19 l-18 27 -6 -24 c-3 -14 -11
-26 -18 -29 -9 -3 -12 20 -12 88 0 69 3 91 13 88 6 -3 14 -22 17 -43z m840 20
c0 -21 5 -25 30 -25 36 0 53 -32 48 -89 -5 -53 -28 -52 -28 2 0 28 -6 49 -15
57 -22 18 -33 3 -37 -49 -2 -25 -9 -46 -15 -49 -10 -3 -13 19 -13 87 0 74 3
91 15 91 9 0 15 -9 15 -25z m128 -3 c2 -15 12 -22 35 -24 46 -4 66 -47 43 -94
-14 -31 -18 -33 -61 -32 l-45 2 0 89 c0 66 3 88 13 85 6 -3 13 -14 15 -26z
m547 -62 l0 -84 -40 -3 c-51 -3 -75 18 -75 67 0 45 19 64 60 58 27 -4 30 -2
30 25 0 18 4 27 13 25 8 -3 12 -30 12 -88z m-5627 -2 c-2 -54 -7 -83 -15 -86
-10 -3 -13 18 -13 82 0 71 3 86 15 86 13 0 15 -14 13 -82z m1755 5 c15 -43 27
-81 27 -85 0 -18 -21 -6 -32 17 -7 16 -19 25 -35 25 -15 0 -27 -9 -35 -25 -10
-23 -38 -35 -38 -17 0 11 40 123 51 144 18 34 36 18 62 -59z m397 -9 c0 -64
-3 -85 -12 -82 -9 3 -14 32 -16 86 -2 68 0 82 13 82 12 0 15 -15 15 -86z
m1654 64 c8 -13 8 -23 -1 -37 -10 -15 -9 -22 2 -31 40 -34 -6 -84 -72 -78
l-38 3 -3 83 -3 83 52 -3 c36 -2 55 -8 63 -20z m836 2 c14 -14 20 -33 20 -64
0 -58 -34 -88 -94 -84 l-41 3 -3 83 -3 82 51 0 c37 0 55 -5 70 -20z m-4340 -5
c0 -8 7 -15 15 -15 8 0 15 -4 15 -10 0 -5 -7 -10 -15 -10 -22 0 -20 -69 3 -86
16 -12 16 -13 -1 -19 -28 -11 -47 13 -47 60 0 25 -5 46 -12 49 -10 5 -10 7 0
12 6 3 12 12 12 20 0 8 7 14 15 14 8 0 15 -7 15 -15z m410 0 c0 -8 7 -15 15
-15 8 0 15 -4 15 -10 0 -5 -7 -10 -15 -10 -11 0 -15 -11 -15 -40 0 -29 4 -40
15 -40 8 0 15 -7 15 -15 0 -8 -9 -15 -20 -15 -23 0 -40 34 -40 80 0 16 -5 30
-12 32 -7 3 -5 12 8 26 22 26 34 28 34 7z m1751 -6 c20 -20 20 -23 5 -31 -20
-11 -21 -52 -1 -72 20 -20 19 -36 -4 -36 -28 0 -39 20 -41 75 -5 94 2 103 41
64z m409 7 c0 -8 6 -17 13 -20 10 -5 10 -7 0 -12 -15 -7 -18 -84 -3 -84 6 0
10 -7 10 -16 0 -10 -7 -14 -22 -12 -19 2 -24 10 -26 48 -2 24 -8 50 -13 57 -7
8 -6 18 3 32 15 24 38 28 38 7z m1420 -1 c0 -8 7 -15 15 -15 8 0 15 -4 15 -10
0 -5 -7 -10 -15 -10 -21 0 -20 -58 1 -82 16 -16 16 -18 0 -24 -27 -10 -46 15
-46 61 0 25 -5 46 -12 49 -10 5 -10 7 0 12 6 3 12 12 12 20 0 8 7 14 15 14 8
0 15 -7 15 -15z m-4172 -27 c18 -18 16 -118 -3 -118 -11 0 -15 11 -15 43 0 55
-12 76 -34 58 -10 -9 -16 -30 -16 -58 0 -71 -24 -49 -28 25 l-3 62 44 0 c23 0
48 -5 55 -12z m119 -3 c7 -21 -4 -32 -19 -17 -15 15 -38 16 -38 2 0 -5 16 -16
35 -24 19 -8 35 -22 35 -30 0 -22 -28 -46 -55 -46 -21 0 -55 23 -55 37 0 3 16
2 35 -1 43 -8 47 8 5 23 -22 7 -30 16 -30 34 0 31 7 37 47 37 21 0 36 -6 40
-15z m173 7 c0 -4 -9 -13 -20 -20 -15 -9 -20 -23 -20 -58 0 -72 -24 -51 -28
24 l-3 62 36 0 c19 0 35 -3 35 -8z m42 -39 c3 -40 6 -48 23 -48 17 0 20 8 23
48 2 33 7 47 18 47 11 0 14 -15 14 -64 l0 -63 -45 -1 c-40 -1 -47 2 -55 24
-16 40 -13 104 4 104 11 0 16 -14 18 -47z m202 25 c15 -25 1 -33 -25 -14 -27
19 -49 6 -49 -30 0 -31 17 -39 46 -23 27 14 37 9 28 -15 -7 -19 -45 -30 -73
-21 -33 10 -44 81 -18 113 14 18 77 11 91 -10z m197 6 c16 -19 15 -79 -1 -99
-17 -20 -59 -19 -82 2 -20 18 -24 64 -8 94 13 24 72 26 91 3z m109 8 c0 -4
-10 -12 -22 -17 -19 -8 -24 -19 -26 -58 -5 -70 -26 -55 -30 20 l-3 61 41 0
c22 0 40 -2 40 -6z m90 -7 c18 -21 4 -32 -21 -17 -11 7 -25 10 -31 6 -7 -4 3
-14 23 -23 37 -17 48 -43 29 -66 -15 -18 -61 -20 -78 -3 -21 21 -13 29 23 22
43 -8 46 7 5 23 -35 13 -47 37 -30 58 16 19 64 19 80 0z m1224 -1 c3 -9 6 -38
6 -66 0 -66 -23 -60 -30 8 -4 35 -9 49 -20 49 -11 0 -16 -14 -20 -50 -4 -36
-9 -50 -20 -50 -11 0 -16 15 -18 63 l-3 62 49 0 c36 0 52 -4 56 -16z m116 1
c18 -21 4 -32 -21 -17 -11 7 -25 10 -31 6 -7 -4 3 -14 23 -23 37 -17 48 -43
29 -66 -15 -18 -61 -20 -78 -3 -21 21 -13 29 23 22 43 -8 46 7 5 23 -35 13
-47 37 -30 58 16 19 64 19 80 0z m218 -37 c3 -40 6 -48 23 -48 16 0 19 7 19
50 0 38 4 50 15 50 12 0 15 -14 15 -64 l0 -64 -42 2 c-34 1 -45 6 -55 26 -7
14 -13 37 -13 53 0 15 -6 27 -13 27 -24 0 -37 -24 -37 -68 0 -61 -24 -51 -28
13 -5 69 -1 73 60 72 l53 -2 3 -47z m196 30 c15 -25 -1 -34 -24 -13 -19 17
-22 17 -37 3 -10 -11 -13 -25 -9 -42 7 -28 33 -35 54 -14 16 16 29 1 16 -20
-6 -9 -25 -18 -42 -20 -53 -5 -83 68 -45 110 21 23 71 21 87 -4z m200 6 c20
-20 20 -63 0 -92 -31 -45 -104 -16 -104 43 0 55 67 86 104 49z m106 7 c0 -5
-9 -12 -19 -16 -15 -5 -21 -17 -23 -52 -2 -26 -9 -48 -15 -51 -10 -3 -13 14
-13 62 l0 66 35 0 c19 0 35 -4 35 -9z m804 3 c12 -5 16 -20 16 -64 0 -57 -1
-58 -27 -58 -57 1 -73 8 -73 31 0 29 18 47 47 47 13 0 23 4 23 9 0 18 -19 22
-39 9 -25 -15 -39 -4 -21 17 13 15 46 20 74 9z m140 -16 c15 -25 1 -32 -27
-14 -21 14 -26 15 -36 2 -19 -23 -10 -60 17 -64 12 -2 22 1 22 7 0 6 7 11 15
11 19 0 19 -14 -1 -34 -52 -52 -120 26 -83 95 13 25 76 23 93 -3z m384 -11
c22 -45 -7 -97 -53 -97 -34 0 -55 26 -55 69 0 47 16 63 60 59 27 -2 38 -9 48
-31z m330 21 c7 -7 12 -35 12 -63 l0 -51 -45 -2 c-35 -1 -47 3 -55 18 -13 24
-13 26 6 44 8 9 26 16 40 16 13 0 24 4 24 9 0 18 -19 22 -39 9 -25 -15 -39 -4
-21 17 15 18 61 20 78 3z m122 -3 c18 -21 3 -32 -22 -16 -14 8 -24 9 -30 3 -7
-7 1 -16 26 -26 37 -16 47 -41 24 -64 -24 -24 -88 -9 -88 20 0 5 16 6 35 2 19
-3 35 -2 35 3 0 5 -16 15 -35 22 -36 13 -45 37 -23 59 17 17 63 15 78 -3z
m391 -1 c16 -19 15 -79 -1 -99 -17 -20 -59 -19 -82 2 -20 18 -24 64 -8 94 13
24 72 26 91 3z m117 4 c7 -7 12 -35 12 -63 l0 -52 -47 1 c-45 1 -48 3 -51 30
-4 31 10 46 46 46 12 0 22 4 22 9 0 18 -19 22 -39 9 -25 -15 -39 -4 -21 17 15
18 61 20 78 3z m112 2 c0 -5 -7 -10 -15 -10 -20 0 -35 -32 -35 -75 0 -25 -4
-35 -12 -33 -8 3 -14 28 -16 66 l-3 62 41 0 c22 0 40 -4 40 -10z"/>
<path d="M23178 8146 c-82 -41 -38 -161 52 -141 19 4 31 0 45 -15 19 -21 45
-27 45 -10 0 6 -11 21 -24 33 -18 17 -22 27 -15 45 22 58 -46 116 -103 88z
m72 -47 c14 -26 -11 -69 -40 -69 -39 0 -65 51 -38 78 20 20 66 15 78 -9z"/>
<path d="M2090 8060 c-14 -26 4 -63 28 -58 21 4 28 44 12 64 -17 19 -27 18
-40 -6z"/>
<path d="M2230 8066 c-18 -23 -8 -61 17 -64 26 -4 39 28 23 58 -13 24 -23 25
-40 6z"/>
<path d="M5361 8066 c-19 -23 -10 -61 14 -61 16 0 20 7 20 34 0 38 -15 50 -34
27z"/>
<path d="M5821 8067 c-17 -17 -13 -57 5 -64 10 -4 22 1 29 11 24 32 -7 80 -34
53z"/>
<path d="M1966 8065 c-4 -10 1 -15 14 -15 13 0 18 5 14 15 -4 8 -10 15 -14 15
-4 0 -10 -7 -14 -15z"/>
<path d="M3990 8095 c0 -26 22 -33 49 -16 12 8 12 12 2 25 -21 26 -51 20 -51
-9z"/>
<path d="M3990 8025 c0 -21 5 -25 30 -25 23 0 30 5 30 19 0 19 -18 31 -46 31
-8 0 -14 -10 -14 -25z"/>
<path d="M4820 8060 c0 -54 2 -60 21 -60 39 0 59 19 59 55 0 36 -28 65 -62 65
-15 0 -18 -9 -18 -60z"/>
<path d="M1060 8066 c-18 -23 -8 -61 17 -64 17 -3 24 3 29 22 4 16 1 32 -6 41
-16 19 -24 19 -40 1z"/>
<path d="M3210 8066 c-6 -8 -10 -25 -8 -38 2 -17 10 -23 28 -23 18 0 26 6 28
23 3 22 -13 52 -28 52 -4 0 -13 -7 -20 -14z"/>
<path d="M4140 8020 c-8 -5 -11 -12 -8 -16 10 -9 38 3 38 16 0 12 -10 13 -30
0z"/>
<path d="M4644 8072 c-30 -20 -18 -72 17 -72 17 0 20 5 17 37 -3 37 -14 49
-34 35z"/>
<path d="M4990 8020 c-8 -5 -11 -12 -8 -16 10 -9 38 3 38 16 0 12 -10 13 -30
0z"/>
<path d="M5491 8066 c-18 -22 -10 -61 13 -61 26 0 44 30 30 52 -15 23 -29 26
-43 9z"/>
<path d="M5620 8020 c-8 -5 -11 -12 -8 -16 10 -9 38 3 38 16 0 12 -10 13 -30
0z"/>
<path d="M25125 9761 c-80 -37 -125 -111 -125 -206 0 -123 95 -217 220 -217
88 0 163 47 204 129 19 37 21 125 5 172 -9 24 -9 39 0 58 15 33 5 62 -26 74
-19 7 -32 6 -47 -4 -17 -11 -26 -12 -51 -1 -44 19 -133 17 -180 -5z m282 -27
c3 -8 -1 -22 -9 -30 -13 -14 -17 -14 -32 1 -13 13 -14 20 -5 31 15 19 38 18
46 -2z m-227 -152 c0 -94 -15 -122 -64 -122 -33 0 -56 15 -56 37 0 19 21 16
36 -4 10 -14 17 -16 31 -7 15 9 19 27 21 93 2 63 6 81 17 81 12 0 15 -16 15
-78z m167 58 c43 -40 41 -124 -4 -160 -19 -14 -41 -20 -79 -20 l-54 0 0 100 0
100 58 0 c44 0 63 -5 79 -20z"/>
<path d="M25242 9563 l3 -78 35 3 c59 4 87 60 59 115 -16 30 -28 37 -67 37
l-33 0 3 -77z"/>
<path d="M24704 9727 c-116 -45 -162 -181 -94 -275 36 -50 69 -73 118 -81 136
-24 255 95 221 222 -29 112 -142 173 -245 134z m133 -33 c136 -65 111 -262
-39 -299 l-28 -7 0 161 c0 179 -1 177 67 145z"/>
<path d="M24130 9695 c-6 -8 -10 -22 -8 -31 3 -19 164 -123 191 -124 25 0 197
109 197 125 0 7 -7 21 -16 29 -22 23 -345 24 -364 1z"/>
<path d="M760 9550 l0 -120 76 0 c56 0 75 3 72 13 -3 7 -27 13 -61 15 l-57 3
0 104 c0 87 -3 105 -15 105 -12 0 -15 -20 -15 -120z"/>
<path d="M1580 9655 c0 -10 7 -15 18 -13 21 4 19 22 -2 26 -10 2 -16 -3 -16
-13z"/>
<path d="M2040 9550 l0 -120 70 0 c56 0 70 3 70 15 0 12 -13 15 -55 15 l-55 0
0 105 c0 87 -3 105 -15 105 -12 0 -15 -20 -15 -120z"/>
<path d="M2217 9664 c-9 -10 2 -24 19 -24 8 0 14 7 14 15 0 15 -21 21 -33 9z"/>
<path d="M2480 9550 c0 -100 3 -120 15 -120 11 0 15 12 15 43 l1 42 37 -42
c21 -24 46 -43 56 -43 15 0 12 8 -18 44 -20 24 -36 48 -36 53 0 5 14 22 30 38
57 55 30 63 -30 9 l-40 -36 0 66 c0 52 -3 66 -15 66 -12 0 -15 -20 -15 -120z"/>
<path d="M12060 9657 c0 -19 56 -216 63 -224 17 -16 34 13 57 93 l24 88 29
-93 c39 -126 52 -122 93 29 26 94 29 116 17 118 -21 5 -22 3 -42 -82 -10 -42
-21 -79 -24 -82 -5 -5 -32 78 -44 136 -4 24 -10 30 -26 28 -20 -3 -23 -10 -58
-138 l-12 -45 -14 55 c-8 30 -19 72 -24 93 -9 35 -39 53 -39 24z"/>
<path d="M12550 9550 c0 -100 3 -120 15 -120 13 0 15 20 15 120 0 100 -2 120
-15 120 -12 0 -15 -20 -15 -120z"/>
<path d="M13610 9581 c0 -49 -3 -96 -6 -105 -8 -21 -50 -21 -62 0 -5 9 -16 14
-25 13 -28 -7 2 -53 37 -57 77 -9 96 22 96 154 0 77 -2 84 -20 84 -19 0 -20
-7 -20 -89z"/>
<path d="M13870 9550 c0 -112 1 -120 20 -120 17 0 19 8 22 66 2 51 7 70 21 78
34 21 52 -4 55 -78 2 -50 6 -66 17 -66 12 0 15 16 15 73 0 90 -17 113 -75 104
-34 -6 -35 -5 -35 29 0 27 -4 34 -20 34 -19 0 -20 -7 -20 -120z"/>
<path d="M14260 9590 c0 -64 3 -80 15 -80 12 0 15 16 15 80 0 64 -3 80 -15 80
-12 0 -15 -16 -15 -80z"/>
<path d="M24110 9546 c0 -76 12 -124 33 -138 7 -4 84 -8 173 -8 198 0 194 -3
194 123 0 48 -3 87 -6 87 -3 0 -43 -22 -89 -50 -46 -27 -92 -50 -102 -50 -11
0 -47 18 -81 40 -34 21 -75 46 -92 55 l-30 16 0 -75z"/>
<path d="M956 9589 c-22 -17 -26 -28 -26 -70 0 -36 5 -54 20 -69 27 -27 83
-27 111 1 29 29 16 36 -25 14 -34 -19 -36 -19 -55 0 -37 33 -27 45 39 45 58 0
60 1 60 25 0 33 -42 75 -73 75 -13 0 -36 -9 -51 -21z m83 -28 c14 -25 5 -31
-41 -31 -24 0 -38 5 -38 13 0 37 62 51 79 18z"/>
<path d="M1130 9588 c-28 -26 -11 -37 27 -17 18 9 29 10 41 2 30 -18 20 -38
-23 -43 -22 -3 -46 -9 -52 -13 -16 -10 -17 -59 -1 -75 15 -15 53 -16 79 -2 13
7 19 7 19 0 0 -5 7 -10 15 -10 12 0 15 14 15 70 0 57 -4 74 -20 90 -26 26 -70
25 -100 -2z m90 -93 c0 -20 -43 -47 -64 -39 -19 7 -22 40 -3 47 27 12 67 7 67
-8z"/>
<path d="M1297 9603 c-4 -3 -7 -44 -7 -90 0 -66 3 -83 15 -83 11 0 15 16 17
68 3 58 6 68 26 77 12 5 22 15 22 22 0 16 -26 17 -35 3 -5 -8 -11 -8 -19 -1
-7 6 -16 8 -19 4z"/>
<path d="M1407 9604 c-4 -4 -7 -45 -7 -91 0 -67 3 -83 15 -83 12 0 15 14 15
64 0 70 12 90 52 84 21 -3 23 -8 26 -75 2 -56 6 -73 17 -73 12 0 15 16 15 75
0 69 -2 76 -26 92 -21 13 -32 14 -54 6 -17 -6 -32 -7 -37 -2 -5 5 -12 6 -16 3z"/>
<path d="M1587 9603 c-4 -3 -7 -44 -7 -90 0 -67 3 -83 15 -83 12 0 15 17 15
90 0 83 -5 101 -23 83z"/>
<path d="M1667 9604 c-4 -4 -7 -45 -7 -91 0 -67 3 -83 15 -83 12 0 15 14 15
63 0 67 10 87 46 87 28 0 34 -17 34 -91 0 -46 3 -59 15 -59 12 0 15 15 15 75
0 69 -2 76 -26 92 -21 13 -32 14 -54 6 -17 -6 -32 -7 -37 -2 -5 5 -12 6 -16 3z"/>
<path d="M1861 9591 c-28 -28 -35 -73 -17 -115 17 -40 53 -55 92 -37 24 11 29
5 18 -23 -7 -19 -56 -21 -84 -4 -29 18 -39 -1 -11 -23 28 -23 78 -25 109 -3
20 14 22 23 22 120 0 94 -7 122 -25 94 -4 -7 -12 -7 -25 0 -29 15 -58 12 -79
-9z m93 -43 c20 -58 -28 -112 -70 -78 -17 15 -19 81 -2 98 22 22 62 10 72 -20z"/>
<path d="M2226 9603 c-3 -3 -6 -44 -6 -90 0 -67 3 -83 15 -83 12 0 15 16 15
84 0 78 -7 105 -24 89z"/>
<path d="M2297 9604 c-4 -4 -7 -45 -7 -91 0 -67 3 -83 15 -83 12 0 15 14 15
64 0 70 12 90 52 84 21 -3 23 -8 26 -75 2 -56 6 -73 17 -73 12 0 15 16 15 75
0 69 -2 76 -26 92 -21 13 -32 14 -54 6 -17 -6 -32 -7 -37 -2 -5 5 -12 6 -16 3z"/>
<path d="M12385 9585 c-33 -32 -35 -101 -5 -133 27 -29 90 -30 115 -2 22 24
12 39 -15 22 -30 -18 -68 -15 -80 7 -5 11 -10 22 -10 25 0 3 30 6 66 6 56 0
65 2 60 16 -3 9 -6 22 -6 30 0 24 -39 54 -70 54 -19 0 -40 -9 -55 -25z m83
-17 c24 -24 13 -38 -27 -38 -46 0 -58 12 -35 34 18 19 45 21 62 4z"/>
<path d="M12635 9585 c-32 -31 -34 -91 -4 -129 16 -20 29 -26 57 -26 42 1 72
19 72 44 0 21 -26 21 -34 0 -10 -26 -59 -14 -74 19 -26 54 26 110 68 72 10 -9
27 -15 37 -13 16 3 15 7 -9 31 -35 35 -80 36 -113 2z"/>
<path d="M12816 9589 c-22 -17 -26 -28 -26 -70 0 -63 23 -89 79 -89 50 0 81
35 81 92 0 75 -75 113 -134 67z m82 -21 c13 -13 16 -66 6 -92 -9 -23 -61 -21
-74 3 -32 60 24 133 68 89z"/>
<path d="M12980 9519 c0 -72 3 -89 15 -89 12 0 15 13 15 58 0 64 16 96 46 90
16 -3 19 -13 22 -76 3 -64 5 -72 22 -72 18 0 20 7 20 64 0 71 17 99 48 79 13
-7 18 -28 20 -77 2 -50 6 -66 17 -66 12 0 15 16 15 73 0 87 -18 115 -67 103
-15 -4 -35 -7 -43 -6 -8 0 -41 2 -72 4 l-58 4 0 -89z"/>
<path d="M13292 9603 c-7 -3 -19 -18 -27 -33 -35 -67 -2 -140 61 -140 42 0 74
15 74 35 0 17 -26 20 -35 5 -9 -14 -48 -13 -63 2 -27 27 -13 38 49 38 l62 0
-7 33 c-10 53 -63 81 -114 60z m66 -35 c24 -24 13 -38 -28 -38 -26 0 -40 5
-40 13 0 18 21 37 40 37 9 0 21 -5 28 -12z"/>
<path d="M13705 9585 c-32 -31 -34 -91 -4 -129 27 -35 86 -36 117 -3 51 54 13
157 -58 157 -19 0 -40 -9 -55 -25z m91 -30 c13 -20 15 -33 7 -58 -8 -28 -13
-32 -43 -32 -30 0 -35 4 -43 32 -12 39 12 83 43 83 11 0 27 -11 36 -25z"/>
<path d="M14060 9520 c0 -73 3 -90 15 -90 11 0 15 13 15 53 0 62 21 100 53 95
20 -3 22 -10 25 -75 3 -65 5 -73 22 -73 18 0 20 7 20 59 0 33 -4 71 -10 85
-11 30 -51 43 -86 27 -15 -6 -24 -7 -24 -1 0 6 -7 10 -15 10 -12 0 -15 -17
-15 -90z"/>
<path d="M14255 9460 c-8 -14 3 -30 21 -30 8 0 14 9 14 20 0 21 -24 28 -35 10z"/>
<path d="M24647 6072 c-62 -62 -79 -86 -84 -116 l-6 -39 39 7 c32 5 54 22 117
86 76 78 89 104 65 128 -26 26 -54 11 -131 -66z m113 40 c0 -20 -138 -162
-158 -162 -6 0 -12 6 -12 12 0 14 149 168 162 168 5 0 8 -8 8 -18z"/>
<path d="M25726 6134 c-9 -8 -16 -22 -16 -30 0 -9 -11 -14 -35 -14 -36 0 -47
-13 -20 -24 12 -4 15 -26 15 -109 0 -67 4 -107 12 -115 7 -7 44 -12 98 -12 54
0 91 5 98 12 8 8 12 48 12 115 0 83 3 105 15 109 27 11 16 24 -20 24 -28 0
-35 4 -35 20 0 10 -9 24 -19 30 -29 15 -87 12 -105 -6z m102 -26 c3 -15 -4
-18 -47 -18 -36 0 -51 4 -51 13 0 23 12 28 55 25 29 -2 41 -8 43 -20z m40
-145 l-3 -108 -85 0 -85 0 -3 108 -3 107 91 0 91 0 -3 -107z"/>
<path d="M25740 5960 c0 -27 5 -50 10 -50 6 0 10 23 10 50 0 28 -4 50 -10 50
-5 0 -10 -22 -10 -50z"/>
<path d="M25800 5960 c0 -27 5 -50 10 -50 6 0 10 23 10 50 0 28 -4 50 -10 50
-5 0 -10 -22 -10 -50z"/>
<path d="M24482 6108 c-8 -8 -12 -52 -12 -133 0 -81 4 -125 12 -133 8 -8 52
-12 133 -12 81 0 125 4 133 12 7 7 12 39 12 75 0 49 -3 63 -15 63 -12 0 -15
-13 -15 -60 l0 -61 -117 3 -118 3 -3 104 c-2 67 1 108 9 117 7 9 31 14 65 14
30 0 54 5 54 10 0 14 -123 13 -138 -2z"/>
<path d="M480 6070 c0 -5 5 -10 10 -10 6 0 10 5 10 10 0 6 -4 10 -10 10 -5 0
-10 -4 -10 -10z"/>
<path d="M6645 6070 c3 -5 10 -10 16 -10 5 0 9 5 9 10 0 6 -7 10 -16 10 -8 0
-12 -4 -9 -10z"/>
<path d="M8670 6000 c0 -47 4 -80 10 -80 6 0 10 33 10 80 0 47 -4 80 -10 80
-6 0 -10 -33 -10 -80z"/>
<path d="M362 5998 l-2 -78 48 1 47 2 -40 6 -40 6 -6 70 -5 70 -2 -77z"/>
<path d="M910 5995 l0 -75 48 2 c43 1 44 2 10 5 l-38 4 0 70 c0 39 -4 69 -10
69 -6 0 -10 -32 -10 -75z"/>
<path d="M7650 6031 c0 -40 0 -40 34 -34 29 4 35 2 41 -16 7 -24 -9 -51 -31
-51 -7 0 -20 7 -29 16 -9 9 -18 14 -21 11 -8 -8 34 -47 51 -47 21 0 55 36 55
58 0 30 -35 55 -65 48 -23 -6 -26 -4 -23 16 2 18 11 24 43 29 l40 6 -47 2 -48
1 0 -39z"/>
<path d="M7806 6049 c-21 -17 -26 -29 -26 -65 0 -56 35 -94 86 -94 45 0 44 15
-1 16 -48 1 -70 24 -70 75 0 48 30 79 76 79 50 0 86 -59 59 -100 -9 -13 -11
-13 -20 0 -5 8 -10 25 -10 36 0 23 -30 37 -56 27 -19 -7 -27 -39 -14 -62 8
-17 19 -20 63 -18 l52 2 3 47 c3 39 -1 49 -20 62 -32 23 -90 20 -122 -5z m79
-49 c10 -16 -5 -50 -21 -50 -17 0 -28 24 -20 45 6 17 32 20 41 5z"/>
<path d="M13238 6059 c-25 -14 -23 -32 2 -19 19 10 20 8 20 -55 0 -37 4 -65
10 -65 6 0 10 32 10 75 0 78 -5 86 -42 64z"/>
<path d="M6943 6040 c-8 -12 -9 -21 -3 -25 6 -3 10 -26 10 -51 0 -39 3 -44 22
-44 17 0 19 3 10 12 -16 16 -15 85 1 91 10 4 10 6 0 6 -7 1 -13 8 -13 16 0 21
-13 19 -27 -5z"/>
<path d="M7360 6045 c0 -8 -6 -15 -12 -15 -10 0 -10 -2 -1 -8 6 -4 13 -28 15
-52 3 -40 6 -45 28 -48 22 -2 23 -1 8 8 -23 14 -26 90 -3 90 12 0 11 4 -5 20
-24 24 -30 25 -30 5z"/>
<path d="M553 6029 c-33 -12 -28 -19 10 -17 43 4 45 -25 2 -32 -23 -4 -31 -11
-33 -32 -3 -29 12 -37 61 -30 27 4 28 6 25 55 -3 55 -23 72 -65 56z m47 -73
c0 -13 -20 -26 -41 -26 -5 0 -9 9 -9 20 0 15 7 20 25 20 15 0 25 -6 25 -14z"/>
<path d="M678 6032 c-27 -3 -28 -6 -28 -58 0 -66 18 -72 22 -6 3 39 6 47 23
47 17 0 20 -8 23 -47 2 -27 7 -48 12 -48 5 0 10 21 12 48 3 40 6 47 26 50 20
3 22 0 22 -47 0 -28 5 -51 10 -51 6 0 10 22 10 50 0 54 -20 77 -53 59 -9 -6
-24 -6 -34 -2 -10 5 -30 7 -45 5z"/>
<path d="M1042 6025 c-31 -23 -31 -79 2 -100 49 -33 99 19 76 79 -5 14 -14 26
-19 26 -5 0 -15 2 -23 5 -7 3 -23 -2 -36 -10z m58 -21 c18 -21 1 -69 -24 -69
-26 0 -40 27 -32 58 7 31 36 36 56 11z"/>
<path d="M1191 6031 c-8 -5 -20 -7 -28 -4 -10 4 -13 -11 -13 -71 0 -44 4 -76
10 -76 6 0 10 11 10 25 0 23 2 24 21 15 54 -30 98 68 47 104 -26 18 -28 19
-47 7z m37 -23 c30 -30 -2 -93 -36 -71 -21 13 -27 50 -12 69 15 17 32 18 48 2z"/>
<path d="M1300 6020 c-33 -33 -22 -88 20 -102 19 -7 60 8 60 21 0 7 -9 7 -25
-1 -19 -8 -28 -8 -40 2 -25 21 -17 30 25 30 36 0 40 2 40 25 0 18 -7 28 -26
35 -33 13 -31 13 -54 -10z m58 -23 c3 -12 -3 -17 -21 -17 -31 0 -40 10 -25 27
15 18 42 12 46 -10z"/>
<path d="M6728 6032 c-27 -3 -28 -6 -28 -58 0 -66 18 -72 22 -6 3 40 6 47 25
50 23 3 28 -6 36 -73 2 -17 5 -8 6 22 1 58 -12 72 -61 65z"/>
<path d="M6848 6029 c-29 -16 -22 -49 12 -60 17 -6 30 -18 30 -26 0 -12 -7
-14 -30 -9 -16 3 -30 2 -30 -3 0 -13 33 -19 59 -10 28 11 26 52 -4 57 -27 5
-46 22 -39 34 4 6 21 7 38 4 29 -5 30 -5 12 9 -23 17 -25 18 -48 4z"/>
<path d="M7043 6033 c-21 -4 -23 -10 -23 -59 0 -30 5 -54 10 -54 6 0 10 21 10
46 0 37 4 47 20 51 18 5 30 25 13 22 -5 -1 -18 -4 -30 -6z"/>
<path d="M7241 6021 c-39 -39 -18 -103 33 -103 28 0 55 17 44 28 -3 3 -15 0
-26 -7 -17 -10 -23 -10 -36 0 -37 31 -4 97 36 72 21 -13 38 -7 22 8 -22 21
-53 22 -73 2z"/>
<path d="M7460 6033 c-22 -9 -30 -24 -30 -58 0 -53 36 -76 76 -50 32 21 33 77
2 99 -24 17 -25 17 -48 9z m48 -55 c3 -29 -1 -38 -17 -43 -25 -8 -37 -1 -43
23 -9 32 10 64 34 60 18 -2 24 -10 26 -40z"/>
<path d="M7588 6033 c-27 -4 -28 -7 -28 -59 0 -30 5 -54 10 -54 6 0 10 21 10
46 0 37 4 47 20 51 11 3 20 9 20 14 0 5 -1 8 -2 8 -2 -1 -15 -4 -30 -6z"/>
<path d="M8002 6024 c-51 -36 -7 -134 47 -104 12 6 21 16 21 22 0 7 -5 6 -15
-2 -17 -14 -55 -4 -55 16 0 10 12 14 40 14 46 0 53 17 20 50 -24 24 -29 24
-58 4z m51 -18 c7 -19 -1 -26 -30 -26 -22 0 -31 19 -16 33 11 12 41 7 46 -7z"/>
<path d="M8234 6026 c-18 -13 -17 -14 16 -13 47 3 50 -27 3 -31 -32 -3 -47
-21 -37 -47 6 -14 27 -21 49 -15 6 2 18 2 28 2 28 -1 24 82 -5 102 -27 19 -29
20 -54 2z m54 -68 c-7 -21 -36 -34 -49 -21 -6 6 -8 16 -5 22 10 15 59 14 54
-1z"/>
<path d="M8368 6032 c-27 -3 -28 -6 -28 -58 0 -66 18 -72 22 -6 3 39 6 47 23
47 17 0 20 -8 23 -47 2 -27 7 -48 12 -48 5 0 10 21 12 48 3 39 6 47 23 47 17
0 20 -8 23 -47 4 -63 22 -62 22 2 0 39 -4 51 -20 60 -13 7 -26 8 -37 1 -10 -5
-24 -6 -33 -2 -8 4 -27 5 -42 3z"/>
<path d="M8571 6031 c-8 -5 -20 -7 -28 -4 -10 4 -13 -11 -13 -71 0 -44 4 -76
10 -76 6 0 10 11 10 25 0 22 3 24 19 15 26 -13 50 -3 62 27 12 31 2 71 -21 83
-22 12 -21 12 -39 1z m37 -23 c30 -30 -2 -93 -36 -71 -21 13 -27 50 -12 69 15
17 32 18 48 2z"/>
<path d="M8734 6015 c-31 -31 -28 -61 7 -88 22 -15 30 -17 48 -8 11 7 21 16
21 22 0 6 -8 6 -21 -1 -25 -14 -49 -6 -49 15 0 11 11 15 41 15 37 0 40 2 34
23 -7 22 -32 47 -47 47 -5 0 -20 -11 -34 -25z m55 -8 c6 -8 8 -17 4 -20 -12
-12 -53 -7 -53 6 0 28 30 37 49 14z"/>
<path d="M8922 6024 c-31 -21 -31 -78 1 -98 25 -17 63 -12 71 10 7 17 1 18
-23 2 -35 -21 -63 20 -45 66 7 18 39 22 49 6 3 -5 12 -10 18 -10 12 1 -30 40
-42 40 -4 0 -17 -7 -29 -16z"/>
<path d="M9060 6033 c-8 -3 -21 -12 -27 -21 -43 -53 29 -130 76 -83 27 27 27
65 1 91 -21 21 -25 22 -50 13z m38 -25 c30 -30 -2 -93 -36 -71 -21 13 -27 50
-12 69 15 17 32 18 48 2z"/>
<path d="M9183 6033 c-21 -4 -23 -10 -22 -61 l2 -57 6 43 c8 48 23 67 45 59
11 -5 16 -20 16 -52 0 -60 18 -58 22 3 3 39 6 47 23 47 17 0 20 -8 23 -47 2
-27 7 -48 13 -48 16 0 10 87 -7 104 -18 19 -20 19 -46 5 -14 -8 -23 -8 -31 0
-6 6 -13 10 -16 10 -4 -1 -16 -4 -28 -6z"/>
<path d="M480 5975 c0 -30 5 -55 10 -55 6 0 10 25 10 55 0 30 -4 55 -10 55 -5
0 -10 -25 -10 -55z"/>
<path d="M1438 6023 c17 -2 32 -8 32 -12 0 -3 -13 -22 -30 -41 -16 -19 -29
-38 -30 -42 0 -5 21 -7 48 -6 36 1 39 2 15 5 -18 2 -33 7 -33 10 0 3 14 22 30
43 17 21 30 41 30 44 0 3 -21 5 -47 4 -37 -1 -40 -2 -15 -5z"/>
<path d="M6650 5975 c0 -30 5 -55 10 -55 6 0 10 25 10 55 0 30 -4 55 -10 55
-5 0 -10 -25 -10 -55z"/>
<path d="M7100 5980 c0 -57 15 -71 68 -63 32 5 32 6 32 59 0 30 -4 54 -10 54
-5 0 -10 -17 -10 -39 0 -41 -20 -67 -45 -57 -10 4 -15 19 -15 51 0 25 -4 45
-10 45 -5 0 -10 -22 -10 -50z"/>
<path d="M8115 6003 c16 -24 16 -28 1 -55 -10 -15 -13 -28 -7 -28 5 0 14 8 20
17 9 17 10 17 28 0 29 -25 36 -21 17 11 -15 27 -15 31 1 55 18 29 6 38 -15 12
-12 -14 -15 -14 -30 0 -26 24 -34 18 -15 -12z"/>
<path d="M8850 5930 c0 -5 5 -10 10 -10 6 0 10 5 10 10 0 6 -4 10 -10 10 -5 0
-10 -4 -10 -10z"/>
<path d="M24650 5150 c-49 -49 -81 -91 -85 -109 -9 -42 -1 -51 37 -40 43 12
188 156 188 186 0 21 -25 43 -50 43 -7 0 -47 -36 -90 -80z m110 38 c0 -17
-141 -158 -157 -158 -27 0 -11 27 59 97 69 70 98 88 98 61z"/>
<path d="M25715 5190 c-6 -26 -11 -30 -41 -30 -19 0 -34 -4 -34 -10 0 -5 7
-10 15 -10 12 0 15 -18 15 -102 0 -57 4 -109 8 -116 6 -9 35 -12 108 -10 l99
3 3 113 c2 90 5 112 17 112 8 0 15 5 15 10 0 6 -15 10 -34 10 -29 0 -34 4 -39
30 -6 29 -8 30 -66 30 -58 0 -60 -1 -66 -30z m104 11 c8 -5 11 -16 8 -25 -7
-18 -82 -23 -92 -6 -18 29 49 53 84 31z m51 -166 l0 -105 -90 0 -90 0 0 105 0
105 90 0 90 0 0 -105z"/>
<path d="M25740 5035 c0 -30 5 -55 10 -55 6 0 10 25 10 55 0 30 -4 55 -10 55
-5 0 -10 -25 -10 -55z"/>
<path d="M25800 5035 c0 -30 5 -55 10 -55 6 0 10 25 10 55 0 30 -4 55 -10 55
-5 0 -10 -25 -10 -55z"/>
<path d="M24493 5190 c-22 -9 -23 -14 -23 -139 0 -119 2 -131 19 -141 11 -5
69 -10 129 -10 134 0 142 6 142 99 0 46 -3 62 -12 59 -8 -3 -14 -28 -16 -67
l-3 -62 -117 3 -117 3 0 115 0 115 63 3 c46 2 62 7 62 17 0 11 -13 15 -52 14
-29 0 -63 -4 -75 -9z"/>
<path d="M785 5151 c-6 -11 9 -23 19 -14 9 9 7 23 -3 23 -6 0 -12 -4 -16 -9z"/>
<path d="M1380 5131 c0 -29 -2 -30 -32 -24 -36 7 -58 -14 -58 -57 0 -37 28
-59 73 -57 l37 1 0 77 c0 43 -4 81 -10 84 -6 4 -10 -6 -10 -24z m-4 -66 c8
-31 -12 -57 -40 -53 -13 2 -22 12 -24 26 -5 36 5 52 32 52 19 0 27 -7 32 -25z"/>
<path d="M1510 5150 c0 -5 5 -10 10 -10 6 0 10 5 10 10 0 6 -4 10 -10 10 -5 0
-10 -4 -10 -10z"/>
<path d="M6645 5151 c-6 -11 9 -23 19 -14 9 9 7 23 -3 23 -6 0 -12 -4 -16 -9z"/>
<path d="M8667 5153 c-11 -11 -8 -163 3 -163 6 0 10 35 10 85 0 85 -1 91 -13
78z"/>
<path d="M420 5096 c0 -30 -3 -61 -6 -70 -7 -17 -44 -22 -44 -6 0 6 -7 10 -15
10 -13 0 -14 -4 -5 -20 16 -31 68 -27 80 6 13 33 13 134 0 134 -5 0 -10 -24
-10 -54z"/>
<path d="M1020 5071 c0 -47 4 -81 10 -81 6 0 10 14 10 30 0 42 38 42 62 0 22
-39 44 -40 23 -1 -13 26 -13 33 0 57 22 43 1 68 -59 72 l-46 3 0 -80z m94 43
c9 -24 -13 -45 -43 -42 -20 2 -27 9 -29 31 -3 25 -1 27 31 27 23 0 37 -6 41
-16z"/>
<path d="M7650 5135 c-19 -22 -3 -31 18 -11 22 19 52 12 52 -14 0 -9 -18 -38
-40 -63 -22 -25 -40 -48 -40 -51 0 -3 23 -6 50 -6 28 0 50 5 50 10 0 6 -13 10
-30 10 -16 0 -30 3 -30 6 0 4 14 22 30 41 32 36 38 61 18 81 -17 17 -63 15
-78 -3z"/>
<path d="M7799 5121 c-33 -33 -37 -67 -14 -111 17 -32 46 -44 91 -37 26 4 25
4 -7 6 -47 1 -79 32 -79 75 0 49 29 80 73 79 20 -1 41 -4 47 -8 30 -18 33 -95
4 -95 -9 0 -14 12 -14 35 0 33 -2 35 -35 35 -29 0 -36 -4 -41 -27 -10 -40 7
-58 57 -60 54 -2 69 10 69 54 0 78 -93 112 -151 54z m79 -64 c3 -22 -1 -27
-17 -27 -15 0 -21 6 -21 23 0 46 33 49 38 4z"/>
<path d="M13237 5132 c-19 -21 -23 -42 -5 -24 22 22 28 12 28 -53 0 -37 4 -65
10 -65 6 0 10 33 10 80 0 85 -10 99 -43 62z"/>
<path d="M6941 5118 c-10 -16 -10 -23 -2 -26 6 -2 11 -24 11 -48 0 -31 5 -46
15 -51 9 -3 19 -2 23 2 4 4 1 10 -5 12 -8 3 -13 21 -13 43 0 21 6 41 13 44 10
5 10 7 0 12 -7 3 -13 12 -13 20 0 21 -13 17 -29 -8z"/>
<path d="M7360 5125 c0 -8 -5 -15 -12 -15 -9 0 -9 -3 0 -12 7 -7 12 -31 12
-54 0 -34 4 -44 21 -49 25 -8 39 2 15 11 -22 9 -22 73 2 90 16 13 16 13 0 14
-10 0 -18 7 -18 15 0 8 -4 15 -10 15 -5 0 -10 -7 -10 -15z"/>
<path d="M480 5095 c-10 -12 -6 -13 24 -8 29 4 36 2 36 -11 0 -10 -8 -16 -24
-16 -35 0 -59 -26 -46 -50 8 -14 20 -19 50 -17 l40 1 0 42 c0 23 -3 49 -6 58
-8 20 -57 21 -74 1z m60 -60 c0 -19 -24 -29 -46 -21 -13 5 -14 9 -4 21 16 20
50 19 50 0z"/>
<path d="M590 5049 c0 -70 18 -79 22 -11 3 40 6 47 26 50 20 3 22 0 22 -47 0
-64 18 -67 22 -3 3 43 5 47 28 47 23 0 26 -5 31 -50 l6 -50 -1 60 -1 60 -77 1
-78 1 0 -58z"/>
<path d="M793 5050 c0 -36 2 -50 4 -32 2 17 2 47 0 65 -2 17 -4 3 -4 -33z"/>
<path d="M844 5084 c-19 -29 -11 -69 17 -87 18 -11 69 -2 69 13 0 6 -11 8 -25
4 -26 -7 -59 11 -49 27 3 5 23 9 44 9 39 0 39 0 29 30 -14 40 -60 42 -85 4z
m70 -9 c4 -11 -2 -15 -24 -15 -20 0 -30 5 -30 15 0 9 9 15 24 15 13 0 26 -7
30 -15z"/>
<path d="M1170 5091 c-25 -48 -1 -101 45 -101 27 0 55 34 55 66 0 47 -78 75
-100 35z m75 -21 c11 -36 -4 -62 -33 -58 -28 3 -40 32 -28 64 8 22 54 18 61
-6z"/>
<path d="M1430 5048 c0 -32 4 -58 10 -58 6 0 10 21 10 46 0 37 4 47 20 51 30
8 24 22 -10 21 -30 -1 -30 -1 -30 -60z"/>
<path d="M1510 5050 c0 -33 4 -60 10 -60 6 0 10 27 10 60 0 33 -4 60 -10 60
-6 0 -10 -27 -10 -60z"/>
<path d="M1571 5091 c-29 -53 -3 -98 50 -87 25 5 30 3 27 -12 -3 -13 -13 -17
-41 -16 -46 2 -45 -20 1 -24 44 -4 64 29 60 99 l-3 52 -42 4 c-34 3 -44 0 -52
-16z m74 -22 c10 -30 -21 -62 -46 -48 -18 9 -26 49 -12 62 15 15 52 6 58 -14z"/>
<path d="M1700 5055 c0 -58 4 -62 68 -63 20 -1 22 4 22 59 0 70 -18 80 -22 12
-3 -41 -6 -48 -25 -51 -21 -3 -23 0 -23 47 0 28 -4 51 -10 51 -5 0 -10 -25
-10 -55z"/>
<path d="M1832 5090 c-6 -11 -12 -30 -12 -43 0 -45 62 -75 89 -43 9 11 4 13
-26 12 -28 -1 -38 3 -41 17 -3 14 4 17 37 17 33 0 41 4 41 18 0 42 -65 59 -88
22z m68 -15 c0 -10 -10 -15 -30 -15 -29 0 -38 9 -23 23 13 13 53 7 53 -8z"/>
<path d="M1956 5101 c5 -5 19 -11 32 -13 23 -3 23 -3 -7 -38 -42 -49 -40 -60
14 -60 25 0 45 5 45 10 0 6 -13 10 -30 10 -16 0 -30 3 -30 6 0 3 14 23 30 44
17 21 30 41 30 44 0 3 -21 6 -47 6 -29 0 -43 -4 -37 -9z"/>
<path d="M6650 5050 c0 -33 4 -60 10 -60 6 0 10 27 10 60 0 33 -4 60 -10 60
-6 0 -10 -27 -10 -60z"/>
<path d="M6700 5048 c0 -32 4 -58 10 -58 6 0 10 23 10 50 0 47 2 50 25 50 25
0 30 -8 39 -75 2 -16 3 -3 2 30 l-1 60 -42 0 -43 1 0 -58z"/>
<path d="M6837 5103 c-17 -17 -5 -45 23 -56 44 -17 40 -41 -6 -34 -30 5 -34 4
-24 -8 24 -29 80 -15 80 20 0 18 -8 26 -35 35 -29 10 -34 15 -24 26 8 10 16
11 31 3 22 -12 34 -6 23 10 -7 12 -58 15 -68 4z"/>
<path d="M7020 5048 c0 -32 4 -58 10 -58 6 0 10 21 10 46 0 37 4 47 20 51 30
8 24 22 -10 21 -30 -1 -30 -1 -30 -60z"/>
<path d="M7100 5061 c0 -57 12 -70 63 -68 l37 1 0 58 c0 32 -4 58 -10 58 -5 0
-10 -17 -10 -37 0 -47 -12 -66 -36 -61 -15 2 -20 14 -22 51 -4 62 -22 61 -22
-2z"/>
<path d="M7237 5092 c-21 -23 -22 -51 -1 -80 23 -33 84 -24 84 12 0 6 -5 5
-12 -2 -22 -22 -57 -14 -64 13 -11 43 2 58 42 52 25 -4 34 -2 31 6 -6 20 -61
20 -80 -1z"/>
<path d="M7441 5096 c-17 -20 -10 -87 11 -100 11 -7 26 -7 45 0 23 8 29 16 31
47 4 46 -11 67 -48 67 -15 0 -33 -6 -39 -14z m64 -46 c0 -28 -4 -36 -22 -38
-29 -4 -48 30 -33 59 7 13 19 19 33 17 18 -2 22 -10 22 -38z"/>
<path d="M7560 5048 c0 -32 4 -58 10 -58 6 0 10 21 10 46 0 37 4 47 20 51 30
8 24 22 -10 21 -30 -1 -30 -1 -30 -60z"/>
<path d="M7987 5092 c-21 -23 -22 -51 -1 -80 17 -25 56 -29 73 -8 9 11 4 13
-26 12 -28 -1 -38 3 -38 14 0 10 12 16 38 18 27 2 37 8 37 21 0 40 -54 55 -83
23z m63 -17 c0 -10 -10 -15 -30 -15 -29 0 -38 9 -23 23 13 13 53 7 53 -8z"/>
<path d="M8110 5080 l21 -30 -21 -30 c-12 -16 -17 -30 -11 -30 5 0 17 10 25
22 l16 22 16 -22 c24 -35 38 -26 16 10 -21 32 -21 32 -1 60 11 15 16 28 10 28
-5 0 -17 -10 -25 -21 l-14 -21 -14 21 c-7 11 -19 21 -26 21 -9 0 -7 -9 8 -30z"/>
<path d="M8227 5104 c-13 -14 -7 -19 21 -19 35 0 45 -19 12 -23 -32 -5 -50
-20 -50 -43 0 -19 24 -28 68 -26 21 1 23 5 20 57 -3 53 -4 55 -33 58 -17 2
-34 0 -38 -4z m56 -61 c11 -10 -13 -33 -34 -33 -21 0 -26 26 -6 33 18 8 33 8
40 0z"/>
<path d="M8330 5048 c0 -32 4 -58 10 -58 6 0 10 17 10 38 0 46 12 65 36 60 15
-2 20 -15 25 -53 4 -32 6 -39 8 -20 3 57 12 76 35 73 17 -2 22 -11 24 -50 4
-58 22 -64 22 -7 0 70 -9 78 -95 76 l-75 -1 0 -58z"/>
<path d="M8530 5028 c0 -45 4 -78 10 -78 6 0 10 11 10 24 0 19 4 22 25 18 35
-6 55 14 55 58 0 46 -15 60 -63 58 l-37 -1 0 -79z m80 42 c15 -28 -4 -62 -33
-58 -22 3 -34 35 -23 64 8 21 44 17 56 -6z"/>
<path d="M8722 5090 c-6 -11 -12 -30 -12 -43 0 -45 62 -75 89 -43 9 11 4 13
-26 12 -28 -1 -38 3 -41 17 -3 14 4 17 37 17 33 0 41 4 41 18 0 42 -65 59 -88
22z m68 -15 c0 -10 -10 -15 -30 -15 -29 0 -38 9 -23 23 13 13 53 7 53 -8z"/>
<path d="M8905 5086 c-26 -40 -2 -96 41 -96 23 0 60 28 49 38 -3 3 -11 0 -17
-6 -31 -31 -73 2 -61 47 5 20 11 22 40 18 24 -4 33 -2 30 6 -2 7 -18 13 -35
15 -24 2 -34 -2 -47 -22z"/>
<path d="M9032 5098 c-7 -7 -12 -29 -12 -50 0 -31 5 -41 25 -50 42 -19 75 3
75 50 0 45 -14 62 -50 62 -14 0 -31 -5 -38 -12z m68 -28 c15 -28 -4 -62 -33
-58 -22 3 -34 35 -23 64 8 21 44 17 56 -6z"/>
<path d="M9150 5049 c0 -70 18 -79 22 -11 3 40 6 47 26 50 20 3 22 0 22 -47 0
-64 18 -67 22 -3 3 40 6 47 25 50 23 3 27 -5 37 -73 2 -16 3 -3 2 30 l-1 60
-77 1 -78 1 0 -58z"/>
<path d="M8850 5006 c0 -9 5 -16 10 -16 6 0 10 4 10 9 0 6 -4 13 -10 16 -5 3
-10 -1 -10 -9z"/>
<path d="M24647 4222 c-62 -62 -79 -86 -84 -116 l-6 -39 39 7 c30 6 54 24 116
88 77 80 89 103 66 126 -26 26 -54 11 -131 -66z m113 40 c0 -20 -140 -162
-159 -162 -25 0 -7 29 66 102 43 43 81 78 85 78 5 0 8 -8 8 -18z"/>
<path d="M25726 4284 c-9 -8 -16 -22 -16 -30 0 -9 -11 -14 -35 -14 -19 0 -35
-4 -35 -10 0 -5 7 -10 15 -10 12 0 15 -19 15 -110 0 -129 0 -130 110 -130 110
0 110 1 110 130 0 91 3 110 15 110 8 0 15 5 15 10 0 6 -16 10 -35 10 -28 0
-35 4 -35 20 0 10 -9 24 -19 30 -29 15 -87 12 -105 -6z m102 -26 c3 -15 -4
-18 -47 -18 -36 0 -51 4 -51 13 0 23 12 28 55 25 29 -2 41 -8 43 -20z m40
-145 l-3 -108 -85 0 -85 0 -3 108 -3 107 91 0 91 0 -3 -107z"/>
<path d="M25747 4163 c-11 -10 -8 -103 3 -103 6 0 10 25 10 55 0 56 -1 60 -13
48z"/>
<path d="M25800 4116 c0 -31 5 -56 10 -56 6 0 10 22 10 49 0 28 -4 53 -10 56
-6 4 -10 -15 -10 -49z"/>
<path d="M24482 4258 c-8 -8 -12 -52 -12 -133 0 -81 4 -125 12 -133 17 -17
238 -16 262 1 14 10 16 25 14 77 -4 83 -22 84 -26 2 l-3 -63 -117 3 -117 3 -3
95 c-4 139 -4 140 68 140 33 0 60 4 60 10 0 14 -123 13 -138 -2z"/>
<path d="M6646 4231 c-4 -5 -2 -12 3 -15 5 -4 12 -2 15 3 4 5 2 12 -3 15 -5 4
-12 2 -15 -3z"/>
<path d="M375 4205 c-29 -28 -33 -79 -9 -113 11 -16 25 -22 54 -22 29 0 43 6
54 22 26 37 21 58 -14 58 -16 0 -30 -4 -30 -10 0 -5 9 -10 20 -10 26 0 25 -12
-1 -36 -19 -17 -23 -17 -47 -3 -20 11 -28 24 -30 51 -5 59 47 90 90 51 16 -15
18 -15 18 0 0 19 -29 37 -60 37 -11 0 -32 -11 -45 -25z"/>
<path d="M520 4220 c0 -5 5 -10 10 -10 6 0 10 5 10 10 0 6 -4 10 -10 10 -5 0
-10 -4 -10 -10z"/>
<path d="M810 4150 c0 -47 4 -80 10 -80 6 0 10 33 10 80 0 47 -4 80 -10 80 -6
0 -10 -33 -10 -80z"/>
<path d="M873 4150 c0 -47 2 -66 4 -42 2 23 2 61 0 85 -2 23 -4 4 -4 -43z"/>
<path d="M1112 4149 c0 -46 3 -69 5 -51 6 43 41 45 65 2 23 -40 43 -39 23 1
-15 28 -15 32 -1 48 34 38 12 69 -54 78 l-40 6 2 -84z m77 47 c19 -23 2 -46
-35 -46 -31 0 -34 3 -34 30 0 26 3 30 29 30 16 0 34 -6 40 -14z"/>
<path d="M8530 4150 c0 -47 4 -80 10 -80 6 0 10 33 10 80 0 47 -4 80 -10 80
-6 0 -10 -33 -10 -80z"/>
<path d="M13242 4214 c-28 -19 -30 -39 -2 -24 19 10 20 8 20 -55 0 -37 4 -65
10 -65 6 0 10 33 10 80 0 44 -3 80 -8 80 -4 0 -18 -7 -30 -16z"/>
<path d="M6950 4208 c0 -9 -6 -19 -12 -22 -10 -5 -10 -7 0 -12 7 -3 12 -25 12
-55 0 -44 2 -49 22 -49 17 0 19 3 10 12 -16 16 -16 85 0 90 8 3 5 12 -10 28
-17 18 -22 20 -22 8z"/>
<path d="M7353 4195 c-6 -14 -7 -25 -3 -25 5 0 10 -21 12 -47 3 -43 6 -48 28
-51 22 -2 23 -1 8 8 -12 8 -18 24 -18 50 0 31 4 40 18 40 16 1 16 1 0 14 -10
7 -18 18 -18 25 0 19 -15 12 -27 -14z"/>
<path d="M7665 4195 c-36 -35 -34 -88 4 -126 30 -29 83 -40 96 -19 4 6 -9 10
-33 10 -59 0 -90 44 -71 100 28 80 145 62 137 -21 -4 -47 -26 -49 -30 -3 -3
32 -7 38 -29 41 -33 4 -51 -17 -47 -54 3 -26 6 -28 56 -30 42 -1 54 2 62 17
15 29 12 55 -11 84 -29 36 -99 37 -134 1z m83 -59 c2 -10 -1 -23 -7 -29 -15
-15 -46 16 -37 38 8 21 40 15 44 -9z"/>
<path d="M588 4179 c-30 -17 -22 -46 17 -59 19 -6 35 -16 35 -21 0 -16 -29
-22 -45 -9 -17 14 -31 8 -20 -9 9 -16 61 -13 75 4 18 22 6 42 -29 50 -43 9
-43 40 -1 32 31 -7 42 6 14 17 -21 8 -26 7 -46 -5z"/>
<path d="M702 4174 c-25 -17 -31 -71 -10 -92 15 -15 74 -16 83 -1 11 17 -2 21
-23 8 -17 -10 -23 -10 -36 0 -26 22 -19 31 24 31 33 0 40 3 40 19 0 22 -25 51
-43 51 -7 0 -23 -7 -35 -16z m56 -21 c2 -9 -7 -13 -27 -13 -30 0 -39 9 -24 24
11 10 46 3 51 -11z"/>
<path d="M930 4170 c-25 -25 -26 -62 -2 -83 21 -19 67 -23 77 -6 11 16 -3 23
-19 10 -11 -9 -20 -10 -35 -1 -34 18 -24 30 23 30 41 0 44 2 39 23 -6 24 -30
47 -50 47 -7 0 -22 -9 -33 -20z m60 -15 c11 -13 7 -15 -25 -15 -32 0 -36 2
-25 15 7 8 18 15 25 15 7 0 18 -7 25 -15z"/>
<path d="M1270 4183 c-22 -9 -30 -24 -30 -58 0 -40 16 -55 57 -55 27 0 35 5
43 26 22 57 -18 107 -70 87z m50 -33 c21 -39 -15 -85 -46 -59 -14 12 -19 60
-7 72 13 14 43 6 53 -13z"/>
<path d="M1386 4174 c-9 -8 -16 -19 -16 -23 0 -13 24 -31 41 -31 23 0 34 -19
20 -33 -9 -9 -17 -8 -32 1 -23 15 -39 8 -22 -9 6 -6 26 -9 44 -7 26 2 35 8 37
25 3 17 -5 26 -33 37 -44 19 -38 40 8 31 30 -6 31 -5 13 10 -25 19 -40 19 -60
-1z"/>
<path d="M1496 4175 c-20 -21 -11 -41 25 -54 16 -5 29 -15 29 -21 0 -16 -30
-24 -43 -11 -17 17 -31 13 -17 -5 21 -24 74 -15 78 14 3 18 -4 26 -33 38 -43
17 -37 39 9 30 29 -5 30 -5 12 9 -25 19 -41 19 -60 0z"/>
<path d="M6650 4131 c0 -34 4 -61 10 -61 6 0 10 24 10 54 0 30 -4 58 -10 61
-6 4 -10 -17 -10 -54z"/>
<path d="M6700 4128 c0 -70 18 -78 22 -10 3 40 6 47 25 50 23 3 28 -6 36 -73
2 -17 5 -8 6 22 1 58 -7 68 -56 68 l-33 0 0 -57z"/>
<path d="M6843 4183 c-7 -2 -13 -15 -13 -28 0 -17 8 -26 30 -34 17 -5 30 -15
30 -21 0 -16 -30 -24 -43 -11 -17 17 -31 13 -17 -5 21 -24 74 -15 78 14 3 18
-4 26 -33 38 -43 17 -37 39 9 30 29 -5 30 -5 12 9 -20 15 -32 17 -53 8z"/>
<path d="M7043 4183 c-21 -4 -23 -10 -23 -59 0 -30 5 -54 10 -54 6 0 10 21 10
46 0 37 4 47 20 51 18 5 30 25 13 22 -5 -1 -18 -4 -30 -6z"/>
<path d="M7180 4147 c0 -47 -19 -74 -45 -63 -10 4 -15 19 -15 51 0 25 -5 45
-11 45 -6 0 -9 -21 -7 -52 l3 -53 48 -1 47 -2 0 53 c0 30 -4 57 -10 60 -6 4
-10 -11 -10 -38z"/>
<path d="M7240 4170 c-22 -22 -26 -51 -10 -81 12 -21 74 -27 85 -8 11 16 -3
23 -19 10 -21 -18 -56 3 -56 33 0 35 26 53 52 37 26 -16 39 -3 14 15 -27 19
-42 18 -66 -6z"/>
<path d="M7448 4179 c-12 -7 -18 -22 -18 -47 0 -45 14 -62 50 -62 36 0 50 17
50 62 0 50 -39 73 -82 47z m60 -45 c3 -34 -17 -58 -41 -48 -38 14 -24 88 16
82 16 -2 23 -11 25 -34z"/>
<path d="M7560 4128 c0 -32 4 -58 10 -58 6 0 10 21 10 46 0 37 4 47 20 51 30
8 24 20 -10 19 -30 -1 -30 -2 -30 -58z"/>
<path d="M7860 4170 c-22 -22 -26 -51 -10 -81 12 -21 74 -27 85 -8 11 17 -2
21 -23 8 -17 -10 -23 -10 -36 0 -27 22 -18 31 30 31 42 0 45 1 39 23 -8 25
-32 47 -52 47 -7 0 -22 -9 -33 -20z m58 -17 c2 -9 -7 -13 -28 -13 -28 0 -31 2
-20 15 15 18 41 16 48 -2z"/>
<path d="M7967 4184 c-3 -4 2 -18 13 -32 20 -24 20 -25 -1 -53 -11 -16 -16
-29 -10 -29 5 0 16 9 24 21 l15 20 16 -22 c21 -31 32 -17 11 15 -15 23 -15 27
-1 48 23 33 19 47 -5 18 l-21 -24 -17 22 c-9 13 -20 20 -24 16z"/>
<path d="M8094 4175 c-18 -14 -16 -15 19 -9 48 8 52 -17 5 -31 -26 -8 -33 -15
-33 -35 0 -23 4 -25 43 -26 l42 -2 0 49 c0 38 -4 51 -19 59 -26 13 -34 13 -57
-5z m56 -69 c0 -16 -27 -29 -41 -20 -19 11 -9 34 16 34 15 0 25 -6 25 -14z"/>
<path d="M8223 4183 c-21 -4 -23 -10 -23 -59 0 -66 18 -72 22 -6 3 40 6 47 26
50 20 3 22 0 22 -47 0 -64 18 -67 22 -3 3 40 6 47 25 50 18 3 23 -3 28 -35 11
-68 13 -69 14 -11 1 49 -2 58 -19 63 -12 4 -28 1 -36 -6 -11 -9 -18 -9 -26 -1
-12 12 -16 13 -55 5z"/>
<path d="M8402 4105 c0 -44 3 -68 5 -53 4 24 8 27 34 21 38 -7 59 11 59 52 0
40 -22 60 -67 60 l-33 0 2 -80z m76 32 c3 -27 -12 -57 -29 -57 -5 0 -16 11
-24 24 -13 20 -14 29 -5 46 17 31 54 23 58 -13z"/>
<path d="M8597 4172 c-20 -22 -22 -73 -5 -90 17 -17 63 -15 78 3 15 18 7 19
-19 3 -15 -9 -23 -9 -35 1 -26 22 -19 31 24 31 32 0 40 4 40 18 0 22 -30 52
-52 52 -8 0 -22 -8 -31 -18z m61 -19 c2 -9 -7 -13 -27 -13 -30 0 -39 9 -24 24
11 10 46 3 51 -11z"/>
<path d="M8780 4170 c-24 -24 -25 -48 -4 -78 16 -23 67 -31 79 -11 10 16 -3
23 -18 10 -20 -16 -46 -3 -53 25 -11 42 34 72 64 42 9 -9 12 -9 12 0 0 12 -31
32 -49 32 -6 0 -20 -9 -31 -20z"/>
<path d="M8908 4179 c-21 -12 -25 -78 -6 -97 17 -17 63 -15 78 3 7 9 13 30 12
48 -1 48 -43 71 -84 46z m60 -50 c3 -36 -16 -57 -39 -43 -36 22 -25 88 13 82
18 -2 24 -10 26 -39z"/>
<path d="M9020 4128 c0 -70 18 -78 22 -10 3 39 6 47 23 47 17 0 20 -8 23 -47
2 -27 7 -48 12 -48 5 0 10 21 12 48 3 40 6 47 26 50 20 3 22 0 22 -47 0 -28 5
-51 10 -51 6 0 10 24 10 54 0 46 -3 56 -20 61 -12 4 -27 1 -35 -5 -8 -7 -20
-8 -27 -3 -7 4 -28 8 -45 8 l-33 0 0 -57z"/>
<path d="M520 4125 c0 -30 5 -55 10 -55 6 0 10 25 10 55 0 30 -4 55 -10 55 -5
0 -10 -25 -10 -55z"/>
<path d="M8710 4080 c0 -5 7 -10 15 -10 8 0 15 5 15 10 0 6 -7 10 -15 10 -8 0
-15 -4 -15 -10z"/>
<path d="M24649 3303 c-74 -75 -98 -116 -86 -148 11 -28 69 5 150 84 76 75 91
103 65 129 -25 25 -53 11 -129 -65z m111 35 c0 -17 -141 -158 -157 -158 -27 0
-11 27 59 97 69 70 98 88 98 61z"/>
<path d="M25735 3372 c-6 -4 -16 -20 -23 -35 -6 -15 -18 -27 -24 -26 -27 3
-48 -1 -48 -11 0 -5 7 -10 15 -10 12 0 15 -18 15 -104 0 -77 4 -107 14 -115 9
-8 47 -11 107 -9 l94 3 3 113 c2 90 5 112 17 112 21 0 19 20 -2 21 -10 1 -25
2 -33 3 -8 0 -16 11 -18 24 -5 34 -86 57 -117 34z m84 -21 c26 -17 4 -41 -38
-41 -42 0 -57 11 -47 35 6 17 62 20 85 6z m51 -166 l0 -105 -90 0 -90 0 0 105
0 105 90 0 90 0 0 -105z"/>
<path d="M25740 3190 c0 -27 5 -50 10 -50 6 0 10 23 10 50 0 28 -4 50 -10 50
-5 0 -10 -22 -10 -50z"/>
<path d="M25800 3190 c0 -27 5 -50 10 -50 6 0 10 23 10 50 0 28 -4 50 -10 50
-5 0 -10 -22 -10 -50z"/>
<path d="M24481 3336 c-8 -9 -11 -56 -9 -142 l3 -129 129 -3 c86 -2 133 1 142
9 21 17 20 139 -1 139 -12 0 -15 -14 -15 -65 l0 -65 -115 0 c-135 0 -128 -9
-123 140 l3 95 63 3 c46 2 62 7 62 17 0 21 -122 21 -139 1z"/>
<path d="M879 3291 c-19 -15 -24 -29 -24 -64 0 -53 25 -87 65 -87 28 0 69 35
56 47 -4 5 -12 0 -17 -10 -23 -40 -89 -4 -89 48 0 28 27 65 47 65 9 0 27 -10
40 -22 19 -18 23 -19 23 -5 0 18 -37 47 -61 47 -9 0 -27 -9 -40 -19z"/>
<path d="M1220 3300 c0 -5 5 -10 10 -10 6 0 10 5 10 10 0 6 -4 10 -10 10 -5 0
-10 -4 -10 -10z"/>
<path d="M6650 3300 c0 -5 5 -10 10 -10 6 0 10 5 10 10 0 6 -4 10 -10 10 -5 0
-10 -4 -10 -10z"/>
<path d="M8530 3225 c0 -50 4 -85 10 -85 6 0 10 35 10 85 0 50 -4 85 -10 85
-6 0 -10 -35 -10 -85z"/>
<path d="M370 3291 c23 -6 25 -12 30 -81 6 -84 18 -76 22 15 3 54 5 60 28 66
16 4 1 7 -40 7 -41 0 -56 -3 -40 -7z"/>
<path d="M7672 3280 c-40 -38 -41 -101 -2 -140 14 -14 32 -20 63 -19 32 2 35
3 12 6 -45 6 -72 23 -85 52 -30 74 65 141 127 89 19 -15 17 -88 -2 -88 -11 0
-15 11 -15 36 0 35 -1 35 -37 32 -35 -3 -38 -6 -41 -35 -4 -35 23 -59 48 -43
9 5 20 4 28 -3 11 -9 18 -6 33 12 26 32 24 67 -6 96 -31 32 -91 34 -123 5z
m73 -70 c0 -28 -29 -40 -38 -15 -9 22 3 46 22 43 10 -2 16 -13 16 -28z"/>
<path d="M13236 3285 c-11 -8 -17 -18 -13 -21 4 -4 13 -1 22 6 13 11 15 4 15
-59 0 -41 4 -71 10 -71 6 0 10 33 10 80 0 85 -6 94 -44 65z"/>
<path d="M6943 3270 c-8 -12 -9 -21 -3 -25 6 -3 10 -26 10 -51 0 -31 5 -46 15
-51 9 -3 19 -2 23 2 4 4 1 10 -5 12 -8 3 -13 22 -13 48 0 25 5 45 13 48 10 4
10 6 0 6 -7 1 -13 8 -13 16 0 21 -13 19 -27 -5z"/>
<path d="M7360 3276 c0 -8 -6 -17 -12 -19 -10 -4 -10 -6 0 -6 8 -1 12 -18 12
-50 0 -41 3 -51 21 -56 27 -9 39 4 16 16 -24 14 -24 86 1 92 16 4 16 5 0 6
-10 0 -18 8 -18 16 0 8 -4 15 -10 15 -5 0 -10 -6 -10 -14z"/>
<path d="M482 3248 c-17 -17 -15 -74 4 -92 35 -35 84 -7 84 48 0 39 -15 56
-50 56 -14 0 -31 -5 -38 -12z m62 -14 c19 -18 20 -28 6 -55 -23 -41 -78 -4
-62 41 11 31 34 37 56 14z"/>
<path d="M600 3199 c0 -33 4 -59 10 -59 6 0 10 20 10 44 0 44 19 74 40 61 5
-3 10 -26 10 -50 0 -24 5 -47 10 -50 6 -4 10 11 10 38 0 87 55 86 63 -1 3 -36
4 -33 3 13 l-1 60 -77 1 -78 1 0 -58z"/>
<path d="M1010 3198 c0 -69 18 -78 22 -11 2 39 7 50 28 60 24 12 24 12 -12 11
l-38 -1 0 -59z"/>
<path d="M1092 3210 c3 -28 8 -53 12 -57 4 -4 24 -8 46 -9 l40 -2 0 59 c0 70
-18 79 -22 12 -2 -37 -7 -49 -22 -51 -24 -5 -36 14 -36 61 0 21 -5 37 -11 37
-8 0 -10 -17 -7 -50z"/>
<path d="M1233 3200 c0 -36 2 -50 4 -32 2 17 2 47 0 65 -2 17 -4 3 -4 -33z"/>
<path d="M1280 3246 c-16 -20 -1 -41 35 -50 14 -4 25 -14 25 -22 0 -13 -7 -15
-37 -9 -33 6 -35 5 -24 -9 16 -19 52 -21 69 -4 23 23 13 46 -23 58 -19 6 -35
16 -35 21 0 16 27 21 50 9 18 -10 21 -9 18 2 -7 19 -62 22 -78 4z"/>
<path d="M1402 3248 c-7 -7 -12 -29 -12 -50 0 -43 26 -64 66 -54 35 9 29 24
-8 22 -23 -1 -33 4 -36 17 -3 14 4 17 37 17 42 0 48 8 31 41 -12 22 -59 26
-78 7z m57 -11 c14 -17 4 -27 -26 -27 -35 0 -28 35 8 39 4 1 12 -5 18 -12z"/>
<path d="M6650 3200 c0 -33 4 -60 10 -60 6 0 10 27 10 60 0 33 -4 60 -10 60
-6 0 -10 -27 -10 -60z"/>
<path d="M6700 3198 c0 -37 4 -57 10 -53 6 3 10 26 10 51 0 81 56 69 63 -14 3
-36 4 -33 3 13 l-1 60 -42 1 -43 2 0 -60z"/>
<path d="M6837 3254 c-17 -18 -6 -45 23 -55 17 -6 30 -18 30 -26 0 -12 -8 -14
-37 -8 -33 6 -35 5 -24 -9 8 -9 23 -16 35 -16 47 0 64 55 21 66 -13 3 -29 12
-36 20 -16 20 13 29 41 14 18 -10 21 -9 18 2 -5 14 -59 24 -71 12z"/>
<path d="M7020 3198 c0 -32 4 -58 10 -58 6 0 10 22 10 48 0 41 4 51 23 59 20
10 20 11 -10 10 l-33 0 0 -59z"/>
<path d="M7100 3211 c0 -57 12 -70 63 -68 l37 1 0 58 c0 32 -4 58 -10 58 -5 0
-10 -17 -10 -37 0 -47 -12 -66 -36 -61 -15 2 -20 14 -22 51 -4 62 -22 61 -22
-2z"/>
<path d="M7232 3240 c-6 -11 -12 -28 -12 -38 0 -28 29 -62 54 -62 26 0 54 26
41 38 -4 4 -10 1 -12 -5 -6 -16 -35 -17 -51 -1 -17 17 -15 53 4 69 13 10 19
10 36 0 21 -13 34 -9 23 8 -11 19 -69 13 -83 -9z"/>
<path d="M7442 3248 c-20 -20 -15 -86 7 -98 44 -23 81 1 81 54 0 39 -15 56
-50 56 -14 0 -31 -5 -38 -12z m57 -12 c20 -24 10 -70 -16 -74 -38 -6 -53 57
-19 80 16 11 22 10 35 -6z"/>
<path d="M7560 3198 c0 -32 4 -58 10 -58 6 0 10 22 10 48 0 41 4 51 23 59 20
10 20 11 -10 10 l-33 0 0 -59z"/>
<path d="M7853 3241 c-17 -28 -16 -52 3 -79 18 -26 56 -29 75 -6 11 13 9 14
-14 9 -26 -7 -57 7 -57 26 0 4 20 9 45 11 44 3 44 3 32 28 -17 33 -67 39 -84
11z m65 -14 c3 -13 -3 -17 -27 -17 -33 0 -39 8 -19 28 17 17 42 11 46 -11z"/>
<path d="M7979 3231 l21 -29 -21 -26 c-12 -15 -18 -30 -14 -34 3 -4 15 4 25
18 l18 24 20 -24 c11 -14 23 -22 26 -19 4 3 -3 18 -15 33 l-22 28 22 29 c14
19 17 29 9 29 -7 0 -19 -10 -26 -21 l-14 -21 -14 21 c-8 11 -20 21 -25 21 -6
0 -1 -13 10 -29z"/>
<path d="M8090 3251 c-8 -6 -11 -13 -7 -17 3 -4 13 -1 22 6 18 15 45 6 45 -15
0 -10 -10 -15 -30 -15 -32 0 -54 -27 -40 -50 5 -8 27 -15 50 -16 l41 -2 -3 57
c-3 54 -4 56 -33 59 -16 1 -37 -2 -45 -7z m58 -68 c-4 -22 -48 -31 -48 -10 0
19 10 27 32 27 13 0 18 -6 16 -17z"/>
<path d="M8200 3199 c0 -33 4 -59 10 -59 6 0 10 20 10 44 0 44 19 74 40 61 5
-3 10 -28 10 -56 0 -27 5 -49 10 -49 6 0 10 20 10 44 0 27 6 48 15 56 23 19
38 0 46 -58 7 -46 7 -46 5 13 l-1 60 -77 1 -78 1 0 -58z"/>
<path d="M8401 3175 c1 -55 4 -69 8 -45 4 23 9 31 14 23 23 -35 77 3 77 54 0
39 -18 54 -64 51 l-36 -3 1 -80z m68 61 c20 -24 10 -70 -16 -74 -38 -6 -53 57
-19 80 16 11 22 10 35 -6z"/>
<path d="M8592 3248 c-18 -18 -14 -73 6 -91 23 -21 42 -21 68 -2 18 13 16 14
-21 12 -30 -2 -40 2 -43 16 -3 14 4 17 37 17 42 0 48 8 31 41 -12 22 -59 26
-78 7z m56 -10 c19 -19 14 -28 -18 -28 -16 0 -30 4 -30 8 0 9 21 32 30 32 3 0
11 -5 18 -12z"/>
<path d="M8774 3235 c-21 -32 -11 -72 22 -87 28 -13 54 -3 62 23 4 11 2 12 -9
2 -31 -30 -76 -2 -65 41 7 28 33 41 53 25 15 -13 28 -6 18 10 -13 21 -64 12
-81 -14z"/>
<path d="M8902 3248 c-31 -31 -4 -108 37 -108 45 0 72 68 41 105 -15 18 -61
20 -78 3z m56 -7 c8 -5 12 -22 10 -42 -2 -26 -8 -35 -26 -37 -36 -5 -50 58
-18 80 14 10 18 10 34 -1z"/>
<path d="M9020 3199 c0 -33 4 -59 10 -59 6 0 10 20 10 44 0 44 19 74 40 61 5
-3 10 -28 10 -56 0 -27 5 -49 10 -49 6 0 10 20 10 44 0 44 19 74 40 61 5 -3
10 -26 10 -50 0 -24 5 -47 11 -50 7 -5 9 13 7 52 l-3 58 -77 1 -78 1 0 -58z"/>
<path d="M8716 3161 c-4 -5 -2 -12 3 -15 5 -4 12 -2 15 3 4 5 2 12 -3 15 -5 4
-12 2 -15 -3z"/>
<path d="M24647 2372 c-62 -62 -79 -86 -84 -116 l-6 -38 34 7 c24 5 58 31 117
88 81 81 93 102 70 125 -26 26 -54 11 -131 -66z m113 40 c0 -19 -124 -145
-152 -155 -41 -14 -14 33 56 101 76 74 96 85 96 54z"/>
<path d="M25726 2434 c-9 -8 -16 -22 -16 -30 0 -9 -11 -14 -35 -14 -19 0 -35
-4 -35 -10 0 -5 7 -10 15 -10 12 0 15 -19 15 -110 0 -129 0 -130 110 -130 110
0 110 1 110 130 0 91 3 110 15 110 8 0 15 5 15 10 0 6 -16 10 -35 10 -27 0
-35 4 -35 18 0 10 -5 23 -12 30 -18 18 -94 15 -112 -4z m102 -26 c3 -15 -4
-18 -47 -18 -36 0 -51 4 -51 13 0 23 12 28 55 25 29 -2 41 -8 43 -20z m42
-143 c0 -121 3 -118 -110 -113 l-65 3 -3 108 -3 107 91 0 90 0 0 -105z"/>
<path d="M25747 2313 c-11 -10 -8 -103 3 -103 6 0 10 25 10 55 0 56 -1 60 -13
48z"/>
<path d="M25800 2265 c0 -30 5 -55 10 -55 6 0 10 25 10 55 0 30 -4 55 -10 55
-5 0 -10 -25 -10 -55z"/>
<path d="M24477 2413 c-4 -3 -7 -64 -7 -134 0 -117 2 -129 19 -139 11 -5 68
-10 126 -10 141 0 145 3 145 91 0 52 -3 70 -12 67 -8 -3 -14 -28 -16 -67 l-3
-62 -117 3 -117 3 -3 95 c-4 139 -4 140 68 140 33 0 60 4 60 10 0 11 -133 14
-143 3z"/>
<path d="M930 2374 c0 -8 5 -12 10 -9 6 4 8 11 5 16 -9 14 -15 11 -15 -7z"/>
<path d="M6646 2381 c-4 -5 -2 -12 3 -15 5 -4 12 -2 15 3 4 5 2 12 -3 15 -5 4
-12 2 -15 -3z"/>
<path d="M362 2298 c0 -46 3 -68 5 -50 6 43 41 45 66 2 23 -39 42 -39 22 -1
-13 27 -13 33 3 61 17 30 17 31 -7 51 -13 10 -38 19 -57 19 l-34 0 2 -82z m78
47 c18 -21 -5 -47 -39 -43 -20 2 -27 9 -29 31 -3 24 0 27 26 27 16 0 35 -7 42
-15z"/>
<path d="M1040 2300 l0 -80 44 0 c27 0 51 6 60 16 20 19 20 24 1 51 -10 14
-12 24 -5 28 17 10 11 44 -9 55 -11 5 -36 10 -55 10 l-36 0 0 -80z m85 35 c0
-15 -8 -21 -32 -23 -30 -3 -33 -1 -33 23 0 24 3 26 33 23 24 -2 32 -8 32 -23z
m8 -57 c8 -25 -6 -38 -39 -38 -30 0 -34 3 -34 25 0 22 4 25 34 25 19 0 36 -6
39 -12z"/>
<path d="M1310 2300 c0 -47 4 -80 10 -80 6 0 10 33 10 80 0 47 -4 80 -10 80
-6 0 -10 -33 -10 -80z"/>
<path d="M7657 2362 c-19 -21 -23 -42 -5 -24 22 22 28 12 28 -53 0 -37 4 -65
10 -65 6 0 10 33 10 80 0 85 -10 99 -43 62z"/>
<path d="M7755 2364 c-22 -23 -11 -29 16 -10 17 11 26 13 36 4 21 -17 15 -36
-27 -82 -22 -24 -40 -46 -40 -50 0 -3 23 -6 50 -6 55 0 69 17 18 22 l-32 3 32
36 c34 38 40 67 20 87 -17 17 -54 15 -73 -4z"/>
<path d="M13242 2364 c-12 -8 -22 -20 -22 -27 0 -8 3 -8 12 1 22 22 28 12 28
-53 0 -37 4 -65 10 -65 6 0 10 33 10 80 0 44 -3 80 -8 80 -4 0 -18 -7 -30 -16z"/>
<path d="M1374 2356 c-13 -21 -7 -104 9 -123 5 -7 17 -13 26 -13 14 1 14 2 -1
14 -23 17 -25 86 -3 86 8 0 15 5 15 10 0 6 -6 10 -14 10 -8 0 -16 8 -18 18 -3
16 -4 16 -14 -2z"/>
<path d="M6941 2349 c-8 -14 -9 -24 -3 -28 6 -3 12 -26 14 -51 2 -36 7 -46 23
-48 16 -3 18 -1 8 9 -7 7 -13 30 -13 50 0 21 6 40 13 43 10 5 10 7 0 12 -7 3
-13 12 -13 20 0 20 -13 17 -29 -7z"/>
<path d="M7360 2356 c0 -8 -6 -17 -12 -19 -10 -4 -10 -7 -1 -14 6 -5 13 -29
15 -53 3 -40 6 -45 28 -48 23 -2 24 -1 8 11 -21 17 -25 82 -5 91 10 5 10 7 0
12 -7 3 -13 12 -13 20 0 8 -4 14 -10 14 -5 0 -10 -6 -10 -14z"/>
<path d="M513 2333 c-24 -9 -13 -21 18 -19 18 0 34 -5 36 -11 3 -8 -4 -13 -17
-13 -32 0 -60 -18 -60 -40 0 -20 19 -27 73 -28 25 0 27 3 27 40 0 66 -27 92
-77 71z m57 -72 c0 -16 -27 -31 -44 -25 -30 11 -16 34 21 34 13 0 23 -4 23 -9z"/>
<path d="M620 2278 c0 -70 18 -78 22 -10 3 39 6 47 23 47 17 0 20 -8 23 -47 2
-27 7 -48 12 -48 5 0 10 21 12 48 3 40 6 47 26 50 20 3 22 0 22 -47 0 -29 5
-51 10 -51 7 0 10 22 8 58 l-3 57 -77 0 -78 0 0 -57z"/>
<path d="M822 2328 c-21 -21 -13 -39 23 -54 19 -8 35 -19 35 -24 0 -17 -29
-23 -45 -10 -9 7 -19 10 -22 6 -10 -10 17 -26 42 -26 24 0 45 18 45 38 0 7
-16 20 -35 28 -47 19 -46 38 1 31 30 -5 34 -4 24 8 -15 18 -52 19 -68 3z"/>
<path d="M930 2281 c0 -34 4 -61 10 -61 6 0 10 24 10 54 0 30 -4 58 -10 61 -6
4 -10 -17 -10 -54z"/>
<path d="M1196 2325 c-19 -20 -21 -64 -3 -89 20 -27 68 -18 87 17 13 24 13 30
0 55 -18 32 -60 41 -84 17z m62 -17 c30 -30 -3 -87 -39 -68 -19 10 -27 59 -12
73 10 11 38 8 51 -5z"/>
<path d="M1457 2322 c-20 -22 -22 -73 -5 -90 17 -17 63 -15 78 3 15 18 7 19
-21 4 -15 -7 -24 -7 -35 2 -24 20 -16 29 26 29 33 0 40 3 40 19 0 24 -26 51
-49 51 -10 0 -25 -8 -34 -18z m61 -19 c2 -9 -7 -13 -27 -13 -30 0 -39 9 -24
24 11 10 46 3 51 -11z"/>
<path d="M1570 2278 c0 -69 18 -78 22 -10 3 43 5 47 28 47 23 0 25 -4 28 -47
4 -58 22 -64 22 -7 0 62 -13 79 -60 77 l-40 -1 0 -59z"/>
<path d="M6650 2281 c0 -34 4 -61 10 -61 6 0 10 24 10 54 0 30 -4 58 -10 61
-6 4 -10 -17 -10 -54z"/>
<path d="M6700 2278 c0 -70 18 -78 22 -10 3 40 6 47 25 50 23 3 27 -5 37 -73
2 -16 3 -3 2 30 l-1 60 -42 0 -43 1 0 -58z"/>
<path d="M6837 2333 c-4 -3 -7 -17 -7 -30 0 -18 7 -25 30 -29 17 -4 30 -13 30
-21 0 -19 -29 -28 -43 -14 -17 17 -31 13 -17 -5 21 -24 74 -15 78 14 3 18 -4
26 -33 38 -42 17 -37 39 7 30 26 -5 29 -4 18 9 -13 15 -51 20 -63 8z"/>
<path d="M7020 2278 c0 -32 4 -58 10 -58 6 0 10 21 10 46 0 37 4 47 20 51 30
8 24 22 -10 21 -30 -1 -30 -1 -30 -60z"/>
<path d="M7100 2291 c0 -57 12 -70 63 -68 l37 1 0 52 c0 29 -4 56 -10 59 -6 4
-10 -9 -10 -32 0 -47 -19 -77 -43 -67 -13 5 -17 18 -17 55 0 27 -4 49 -10 49
-5 0 -10 -22 -10 -49z"/>
<path d="M7236 2318 c-9 -12 -16 -32 -16 -44 0 -42 60 -70 88 -42 20 20 13 30
-10 14 -39 -27 -71 9 -52 58 7 19 45 21 62 4 7 -7 12 -8 12 -2 0 36 -61 45
-84 12z"/>
<path d="M7442 2328 c-7 -7 -12 -28 -12 -48 0 -43 14 -60 50 -60 36 0 50 17
50 62 0 27 -5 40 -19 48 -26 13 -54 13 -69 -2z m66 -41 c3 -27 -12 -57 -29
-57 -5 0 -16 11 -24 24 -13 20 -14 29 -5 46 17 31 54 23 58 -13z"/>
<path d="M7560 2278 c0 -32 4 -58 10 -58 6 0 10 21 10 46 0 37 4 47 20 51 31
8 24 22 -10 20 -30 -2 -30 -3 -30 -59z"/>
<path d="M24647 1452 c-62 -62 -79 -86 -84 -117 l-6 -38 38 6 c31 5 54 22 112
79 76 76 94 108 73 133 -25 30 -54 16 -133 -63z m113 36 c0 -17 -141 -158
-157 -158 -27 0 -11 27 59 97 69 70 98 88 98 61z"/>
<path d="M25726 1514 c-9 -8 -16 -22 -16 -30 0 -9 -11 -14 -35 -14 -36 0 -47
-13 -20 -24 12 -4 15 -26 15 -109 0 -67 4 -107 12 -115 16 -16 180 -16 196 0
8 8 12 48 12 115 0 83 3 105 15 109 27 11 16 24 -20 24 -28 0 -35 4 -35 20 0
10 -9 24 -19 30 -29 15 -87 12 -105 -6z m88 -10 c9 -3 16 -12 16 -20 0 -10
-14 -14 -50 -14 -35 0 -50 4 -50 13 0 8 3 17 7 20 8 9 56 9 77 1z m54 -161
l-3 -108 -85 0 -85 0 -3 108 -3 107 91 0 91 0 -3 -107z"/>
<path d="M25740 1340 c0 -27 5 -50 10 -50 6 0 10 23 10 50 0 28 -4 50 -10 50
-5 0 -10 -22 -10 -50z"/>
<path d="M25800 1340 c0 -27 5 -50 10 -50 6 0 10 23 10 50 0 28 -4 50 -10 50
-5 0 -10 -22 -10 -50z"/>
<path d="M24482 1488 c-8 -8 -12 -54 -12 -139 0 -106 3 -128 16 -133 30 -12
249 -7 262 6 7 7 12 39 12 75 0 49 -3 63 -15 63 -12 0 -15 -13 -15 -60 l0 -61
-117 3 -118 3 -3 104 c-2 67 1 108 9 117 7 9 31 14 65 14 30 0 54 5 54 10 0
14 -123 13 -138 -2z"/>
<path d="M403 1448 c-16 -21 -55 -138 -50 -151 3 -7 10 0 16 16 9 22 17 27 45
27 28 0 35 -4 40 -25 4 -14 11 -23 16 -20 5 3 -2 36 -16 72 -35 92 -38 97 -51
81z m26 -75 c1 -7 -8 -13 -19 -13 -23 0 -23 0 -9 37 10 26 12 27 19 8 5 -11 9
-26 9 -32z"/>
<path d="M580 1430 c0 -28 -2 -30 -21 -20 -53 29 -96 -62 -49 -105 17 -15 24
-16 45 -7 17 8 25 8 25 1 0 -6 5 -7 10 -4 6 3 10 42 10 86 0 46 -4 79 -10 79
-5 0 -10 -14 -10 -30z m-9 -54 c12 -26 -2 -66 -24 -66 -33 0 -50 53 -25 78 19
19 37 14 49 -12z"/>
<path d="M6645 1450 c3 -5 10 -10 16 -10 5 0 9 5 9 10 0 6 -7 10 -16 10 -8 0
-12 -4 -9 -10z"/>
<path d="M1004 1433 c2 -10 12 -46 22 -80 9 -35 20 -63 24 -63 4 0 15 27 24
61 10 33 19 59 22 56 2 -2 12 -28 23 -58 10 -30 22 -52 27 -50 9 3 43 112 44
139 0 6 -4 12 -8 12 -5 0 -15 -28 -23 -62 l-15 -63 -11 35 c-6 19 -14 47 -17
63 -10 45 -32 32 -46 -28 -7 -30 -16 -55 -20 -55 -4 0 -12 25 -19 55 -7 30
-17 55 -22 55 -6 0 -8 -8 -5 -17z"/>
<path d="M13234 1436 c-10 -8 -16 -18 -12 -22 4 -4 14 -1 23 6 13 11 15 4 15
-59 0 -46 4 -70 10 -66 6 3 10 40 10 81 0 79 -7 88 -46 60z"/>
<path d="M1452 1420 c-7 -12 -8 -20 -2 -20 5 0 10 -22 10 -49 0 -36 4 -51 16
-55 9 -4 20 -3 23 0 3 4 0 9 -6 11 -8 3 -13 22 -13 48 0 25 5 45 13 48 10 4
10 6 0 6 -7 1 -13 8 -13 16 0 21 -13 19 -28 -5z"/>
<path d="M6943 1420 c-8 -12 -9 -21 -3 -25 6 -3 10 -26 10 -50 0 -30 5 -45 16
-49 9 -4 20 -3 23 0 3 4 0 9 -6 11 -8 3 -13 22 -13 48 0 25 5 45 13 48 10 4
10 6 0 6 -7 1 -13 8 -13 16 0 21 -13 19 -27 -5z"/>
<path d="M7360 1426 c0 -8 -6 -17 -12 -19 -10 -4 -10 -6 0 -6 7 -1 12 -17 12
-45 0 -45 19 -74 41 -60 8 5 7 9 -5 16 -23 13 -22 85 2 91 16 4 16 5 0 6 -10
0 -18 8 -18 16 0 8 -4 15 -10 15 -5 0 -10 -6 -10 -14z"/>
<path d="M653 1409 c-33 -12 -28 -19 9 -17 23 2 33 -2 36 -14 2 -12 -5 -17
-30 -20 -28 -2 -34 -7 -36 -30 -3 -29 -2 -30 56 -32 l33 -1 -3 54 c-3 59 -22
76 -65 60z m47 -74 c0 -19 -24 -29 -46 -21 -13 5 -14 9 -4 21 16 20 50 19 50
0z"/>
<path d="M790 1410 c-7 -4 -19 -6 -27 -3 -10 4 -13 -8 -13 -50 0 -31 5 -59 10
-62 6 -4 10 11 10 37 0 51 12 73 34 65 11 -5 16 -19 16 -51 0 -61 18 -69 22
-10 2 31 9 51 20 58 24 14 32 3 39 -57 l6 -52 2 57 c1 46 -3 59 -17 67 -11 6
-24 6 -35 0 -11 -6 -23 -6 -35 0 -10 5 -24 6 -32 1z"/>
<path d="M1238 1409 c-31 -17 -41 -47 -28 -80 13 -31 39 -44 70 -34 31 10 24
23 -12 21 -23 -1 -33 4 -36 17 -3 14 4 17 37 17 47 0 54 17 21 50 -23 23 -28
24 -52 9z m41 -22 c6 -8 8 -17 4 -20 -12 -12 -53 -7 -53 6 0 28 30 37 49 14z"/>
<path d="M1356 1408 c-27 -15 -20 -48 14 -59 17 -6 30 -18 30 -26 0 -12 -8
-14 -37 -9 -35 6 -37 5 -19 -9 24 -18 37 -19 60 -2 23 17 17 51 -9 55 -27 5
-46 22 -39 34 4 6 20 7 36 4 16 -3 27 -2 24 3 -9 14 -42 19 -60 9z"/>
<path d="M6728 1412 c-27 -3 -28 -5 -28 -63 0 -38 4 -58 10 -54 6 3 10 26 10
51 0 81 56 69 63 -14 3 -46 3 -46 5 10 2 63 -9 77 -60 70z"/>
<path d="M6846 1408 c-27 -15 -20 -48 14 -59 17 -6 30 -18 30 -26 0 -12 -7
-14 -30 -9 -16 3 -30 1 -30 -4 0 -15 38 -22 60 -10 27 14 23 53 -5 58 -27 5
-46 22 -39 34 4 6 20 7 36 4 16 -3 27 -2 24 3 -9 14 -42 19 -60 9z"/>
<path d="M7061 1411 c-8 -5 -20 -7 -28 -4 -10 4 -13 -9 -13 -57 0 -38 4 -59
10 -55 6 3 10 27 10 52 0 36 4 46 20 50 11 3 20 9 20 14 0 11 -1 11 -19 0z"/>
<path d="M7260 1412 c-41 -12 -53 -69 -20 -102 24 -24 39 -25 66 -6 25 18 12
31 -14 15 -17 -10 -23 -10 -36 0 -37 31 -4 97 36 72 21 -13 34 -9 24 7 -7 13
-37 20 -56 14z"/>
<path d="M7452 1404 c-19 -13 -22 -24 -20 -57 3 -35 7 -43 30 -51 22 -8 32 -6
48 9 28 25 27 79 -2 99 -28 20 -28 20 -56 0z m53 -49 c0 -35 -3 -40 -24 -40
-28 0 -42 30 -30 63 6 17 15 22 31 20 20 -3 23 -9 23 -43z"/>
<path d="M7588 1413 c-27 -4 -28 -7 -28 -64 0 -38 4 -58 10 -54 6 3 10 27 10
52 0 36 4 46 20 50 11 3 20 9 20 14 0 5 -1 8 -2 8 -2 -1 -15 -4 -30 -6z"/>
<path d="M6650 1349 c0 -37 4 -58 10 -54 6 3 10 31 10 61 0 30 -4 54 -10 54
-6 0 -10 -27 -10 -61z"/>
<path d="M7100 1360 c0 -56 16 -71 66 -66 28 3 29 5 32 60 2 34 -1 56 -8 56
-5 0 -10 -17 -10 -39 0 -41 -20 -67 -45 -57 -10 4 -15 19 -15 51 0 25 -4 45
-10 45 -5 0 -10 -22 -10 -50z"/>
<path d="M24652 530 c-51 -51 -83 -91 -87 -110 -9 -41 -1 -50 37 -39 37 10
188 155 188 180 0 17 -30 49 -47 49 -6 0 -47 -36 -91 -80z m106 35 c-4 -21
-138 -155 -154 -155 -28 0 -12 26 58 97 69 70 103 90 96 58z"/>
<path d="M25715 570 c-6 -26 -11 -30 -41 -30 -19 0 -34 -4 -34 -10 0 -5 7 -10
15 -10 12 0 15 -18 15 -102 0 -57 4 -109 8 -116 6 -9 35 -12 108 -10 l99 3 3
113 c2 90 5 112 17 112 8 0 15 5 15 10 0 6 -15 10 -34 10 -29 0 -34 4 -39 30
-6 29 -8 30 -66 30 -58 0 -60 -1 -66 -30z m113 -7 c-4 -23 -98 -33 -98 -10 0
22 11 27 57 27 37 0 44 -3 41 -17z m42 -148 l0 -105 -90 0 -90 0 0 105 0 105
90 0 90 0 0 -105z"/>
<path d="M25740 415 c0 -30 5 -55 10 -55 6 0 10 25 10 55 0 30 -4 55 -10 55
-5 0 -10 -25 -10 -55z"/>
<path d="M25800 415 c0 -30 5 -55 10 -55 6 0 10 25 10 55 0 30 -4 55 -10 55
-5 0 -10 -25 -10 -55z"/>
<path d="M24493 570 c-22 -9 -23 -14 -23 -139 0 -119 2 -131 19 -141 11 -5 69
-10 129 -10 134 0 142 6 142 99 0 46 -3 62 -12 59 -8 -3 -14 -28 -16 -67 l-3
-62 -117 3 -117 3 0 115 0 115 63 3 c44 2 62 7 59 15 -4 15 -93 20 -124 7z"/>
<path d="M680 524 c0 -8 5 -12 10 -9 6 3 10 10 10 16 0 5 -4 9 -10 9 -5 0 -10
-7 -10 -16z"/>
<path d="M730 455 c0 -50 4 -85 10 -85 6 0 10 35 10 85 0 50 -4 85 -10 85 -6
0 -10 -35 -10 -85z"/>
<path d="M6646 531 c-4 -5 -2 -12 3 -15 5 -4 12 -2 15 3 4 5 2 12 -3 15 -5 4
-12 2 -15 -3z"/>
<path d="M8637 533 c-11 -11 -8 -163 3 -163 6 0 10 35 10 85 0 85 -1 91 -13
78z"/>
<path d="M360 450 l0 -80 45 0 c25 0 45 5 45 10 0 6 -18 10 -40 10 -36 0 -40
3 -40 25 0 23 4 25 40 25 51 0 53 18 3 22 -31 2 -39 7 -41 26 -3 20 1 22 37
22 23 0 41 5 41 10 0 6 -20 10 -45 10 l-45 0 0 -80z"/>
<path d="M967 524 c-11 -11 -8 -154 3 -154 6 0 10 14 10 30 0 25 4 30 24 30
17 0 27 -9 36 -30 7 -16 19 -30 26 -30 12 0 12 5 -1 29 -13 26 -13 33 0 57 21
41 1 68 -52 72 -21 2 -42 0 -46 -4z m78 -44 c0 -21 -5 -26 -32 -28 -31 -3 -33
-1 -33 28 0 29 2 31 33 28 27 -2 32 -7 32 -28z"/>
<path d="M7657 512 c-19 -21 -23 -42 -5 -24 22 22 28 12 28 -53 0 -37 4 -65
10 -65 6 0 10 33 10 80 0 85 -10 99 -43 62z"/>
<path d="M7769 501 c-61 -61 -22 -152 63 -150 l43 2 -44 7 c-52 8 -71 30 -71
80 0 56 41 83 102 67 40 -11 60 -97 22 -97 -9 0 -14 11 -14 33 0 32 -2 34 -35
35 -30 1 -36 -2 -41 -25 -11 -40 7 -58 59 -60 55 -2 73 18 62 73 -12 65 -96
85 -146 35z m79 -64 c3 -22 -1 -27 -18 -27 -26 0 -37 25 -20 45 18 22 34 13
38 -18z"/>
<path d="M13237 512 c-19 -21 -23 -42 -5 -24 22 22 28 12 28 -53 0 -37 4 -65
10 -65 6 0 10 33 10 80 0 85 -10 99 -43 62z"/>
<path d="M6941 498 c-10 -16 -10 -23 -2 -26 6 -2 11 -24 11 -48 0 -31 5 -46
15 -51 9 -3 19 -2 23 2 4 4 1 10 -5 12 -8 3 -13 21 -13 43 0 21 6 41 13 44 10
5 10 7 0 12 -7 3 -13 12 -13 20 0 21 -13 17 -29 -8z"/>
<path d="M7360 505 c0 -8 -5 -15 -12 -15 -9 0 -9 -3 0 -12 7 -7 12 -31 12 -54
0 -34 4 -44 21 -49 25 -8 39 2 15 11 -22 9 -22 73 2 90 16 13 16 13 0 14 -10
0 -18 7 -18 15 0 8 -4 15 -10 15 -5 0 -10 -7 -10 -15z"/>
<path d="M491 425 c1 -33 4 -46 6 -30 8 67 13 76 36 73 19 -3 22 -10 25 -50 4
-64 22 -61 22 3 0 47 2 50 23 47 19 -3 22 -10 25 -50 4 -59 22 -64 22 -5 0 65
-9 72 -90 72 l-70 1 1 -61z"/>
<path d="M680 430 c0 -33 4 -60 10 -60 6 0 10 27 10 60 0 33 -4 60 -10 60 -6
0 -10 -27 -10 -60z"/>
<path d="M780 481 c0 -6 9 -34 20 -63 18 -48 18 -53 3 -70 -15 -17 -15 -18 0
-18 10 0 17 1 17 3 0 1 14 35 30 76 34 82 33 81 21 81 -5 0 -15 -17 -21 -37
-18 -56 -25 -58 -39 -14 -11 38 -31 64 -31 42z"/>
<path d="M1112 478 c-21 -21 -15 -86 9 -98 52 -28 103 23 77 78 -15 30 -64 42
-86 20z m72 -30 c15 -25 -4 -53 -35 -53 -25 0 -37 30 -25 61 8 20 46 14 60 -8z"/>
<path d="M1242 478 c-21 -21 -14 -37 23 -52 19 -8 35 -19 35 -25 0 -15 -23
-19 -43 -9 -23 12 -37 1 -17 -12 33 -21 80 -5 80 28 0 7 -16 20 -35 28 -43 18
-46 38 -5 32 19 -3 29 -1 27 6 -5 16 -50 19 -65 4z"/>
<path d="M1354 464 c-31 -47 6 -104 59 -90 38 9 34 27 -4 19 -21 -4 -34 -1
-39 8 -13 21 -2 29 41 29 43 0 46 5 23 38 -21 30 -59 29 -80 -4z m70 -9 c4
-12 -3 -15 -29 -15 -26 0 -33 3 -29 15 4 8 16 15 29 15 13 0 25 -7 29 -15z"/>
<path d="M6650 430 c0 -33 4 -60 10 -60 6 0 10 27 10 60 0 33 -4 60 -10 60 -6
0 -10 -27 -10 -60z"/>
<path d="M6700 428 c0 -70 18 -78 22 -10 3 40 6 47 25 50 23 3 27 -5 37 -73 2
-16 3 -3 2 30 l-1 60 -42 0 -43 1 0 -58z"/>
<path d="M6837 483 c-4 -3 -7 -16 -7 -29 0 -17 8 -24 31 -29 21 -5 29 -12 27
-23 -4 -18 -20 -20 -53 -6 -18 7 -18 6 -6 -9 14 -18 48 -22 69 -8 22 14 9 45
-26 61 -25 12 -30 18 -21 27 9 9 18 9 31 2 22 -12 34 -6 23 10 -7 12 -58 15
-68 4z"/>
<path d="M7020 428 c0 -32 4 -58 10 -58 6 0 10 21 10 46 0 37 4 47 20 51 30 8
24 22 -10 21 -30 -1 -30 -1 -30 -60z"/>
<path d="M7100 441 c0 -57 12 -70 63 -68 l37 1 0 58 c0 32 -4 58 -10 58 -5 0
-10 -18 -10 -39 0 -43 -22 -74 -45 -65 -10 4 -15 21 -15 55 0 27 -4 49 -10 49
-5 0 -10 -22 -10 -49z"/>
<path d="M7237 472 c-21 -23 -22 -51 -1 -80 23 -33 84 -24 84 12 0 6 -5 5 -12
-2 -22 -22 -57 -14 -64 13 -11 43 2 58 41 52 35 -6 48 6 19 17 -28 11 -50 6
-67 -12z"/>
<path d="M7441 476 c-17 -20 -10 -87 11 -100 11 -7 26 -7 45 0 23 8 29 16 31
47 4 46 -11 67 -48 67 -15 0 -33 -6 -39 -14z m64 -46 c0 -28 -4 -36 -22 -38
-14 -2 -26 4 -33 17 -15 29 4 63 33 59 18 -2 22 -10 22 -38z"/>
<path d="M7560 428 c0 -32 4 -58 10 -58 6 0 10 21 10 46 0 37 4 47 20 51 30 8
24 22 -10 21 -30 -1 -30 -1 -30 -60z"/>
<path d="M7954 465 c-31 -48 6 -105 59 -91 40 10 33 26 -8 19 -23 -4 -35 -2
-35 6 0 6 -1 14 -2 19 -2 4 16 9 39 12 42 5 42 6 30 30 -18 36 -61 39 -83 5z
m70 -10 c4 -12 -3 -15 -29 -15 -26 0 -33 3 -29 15 4 8 16 15 29 15 13 0 25 -7
29 -15z"/>
<path d="M8066 478 c4 -7 14 -21 22 -30 13 -15 12 -20 -7 -44 -12 -15 -19 -30
-15 -33 3 -3 15 5 25 18 l20 24 15 -21 c8 -12 20 -22 25 -22 6 0 1 14 -11 30
l-21 30 21 30 c12 17 17 30 11 30 -5 0 -17 -10 -25 -22 l-16 -22 -16 22 c-16
23 -41 31 -28 10z"/>
<path d="M8190 475 c-10 -12 -6 -13 24 -8 29 4 36 2 36 -11 0 -10 -8 -16 -22
-16 -34 0 -50 -15 -46 -41 3 -21 9 -24 46 -25 l42 -2 0 47 c0 26 -5 52 -12 59
-16 16 -53 15 -68 -3z m58 -62 c-4 -23 -48 -31 -48 -10 0 9 6 18 13 20 25 11
38 7 35 -10z"/>
<path d="M8300 428 c0 -69 18 -78 22 -10 3 40 6 47 26 50 20 3 22 0 22 -47 0
-28 5 -51 10 -51 6 0 10 17 10 38 0 46 12 65 36 60 15 -2 20 -14 22 -51 4 -57
22 -63 22 -6 0 70 -9 77 -95 77 l-75 -1 0 -59z"/>
<path d="M8502 405 c0 -44 3 -68 5 -53 4 24 8 27 34 21 39 -8 59 11 59 57 0
46 -16 61 -64 58 l-36 -3 2 -80z m76 48 c14 -25 -3 -63 -27 -63 -28 0 -45 34
-31 60 13 25 46 26 58 3z"/>
<path d="M8692 470 c-6 -11 -12 -30 -12 -43 0 -45 62 -75 89 -43 9 11 4 13
-26 12 -28 -1 -38 3 -38 14 0 10 12 16 38 18 39 3 44 11 27 43 -14 26 -61 25
-78 -1z m66 -17 c2 -9 -7 -13 -27 -13 -30 0 -39 9 -24 24 11 10 46 3 51 -11z"/>
<path d="M8874 465 c-19 -30 -12 -70 17 -88 22 -14 69 0 69 20 0 13 -3 14 -12
5 -32 -32 -80 8 -57 49 9 17 17 20 41 15 21 -4 28 -2 26 7 -3 6 -19 13 -36 15
-24 3 -34 -2 -48 -23z"/>
<path d="M9001 476 c-7 -8 -11 -32 -9 -53 2 -31 8 -39 31 -47 39 -14 61 2 65
48 4 45 -11 66 -48 66 -15 0 -33 -6 -39 -14z m69 -26 c14 -26 -3 -60 -30 -60
-27 0 -44 34 -30 60 6 11 19 20 30 20 11 0 24 -9 30 -20z"/>
<path d="M9120 429 c0 -70 18 -79 22 -11 3 40 6 47 26 50 20 3 22 0 22 -47 0
-64 18 -67 22 -3 3 43 5 47 28 47 23 0 26 -5 31 -50 l6 -50 -1 60 -1 60 -77 1
-78 1 0 -58z"/>
<path d="M8816 392 c-3 -6 -1 -14 5 -17 15 -10 25 3 12 16 -7 7 -13 7 -17 1z"/>
</g>
</svg>
