<?xml version="1.0" standalone="no"?>
<!DOCTYPE svg PUBLIC "-//W3C//DTD SVG 20010904//EN"
 "http://www.w3.org/TR/2001/REC-SVG-20010904/DTD/svg10.dtd">
<svg version="1.0" xmlns="http://www.w3.org/2000/svg"
 width="2640.000000pt" height="1250.000000pt" viewBox="0 0 2640.000000 1250.000000"
 preserveAspectRatio="xMidYMid meet">

<g transform="translate(0.000000,1250.000000) scale(0.100000,-0.100000)"
fill="#000000" stroke="none">
<path d="M13298 12493 c6 -2 18 -2 25 0 6 3 1 5 -13 5 -14 0 -19 -2 -12 -5z"/>
<path d="M25240 11729 c-76 -30 -140 -123 -140 -203 0 -132 92 -225 224 -226
151 0 258 142 213 283 -11 34 -13 56 -7 68 17 30 11 58 -15 75 -21 14 -30 14
-56 4 -23 -10 -36 -10 -55 -1 -30 13 -129 14 -164 0z m268 -47 c3 -16 -2 -22
-17 -22 -24 0 -35 15 -27 36 9 23 40 13 44 -14z m-228 -140 c0 -95 -15 -122
-65 -122 -31 0 -55 20 -55 44 0 13 24 5 36 -11 10 -14 17 -16 31 -7 15 9 19
27 21 93 2 63 6 81 17 81 12 0 15 -16 15 -78z m175 53 c37 -37 35 -106 -4
-146 -25 -24 -37 -29 -80 -29 l-51 0 0 100 0 100 55 0 c46 0 60 -4 80 -25z"/>
<path d="M25344 11586 c-3 -7 -4 -42 -2 -77 l3 -64 34 3 c19 1 43 10 53 19 25
23 24 87 -2 113 -23 23 -78 27 -86 6z"/>
<path d="M24808 11690 c-126 -38 -171 -207 -80 -304 59 -62 167 -76 239 -30
182 118 50 397 -159 334z m151 -48 c91 -68 93 -191 5 -259 -19 -14 -48 -26
-66 -26 l-33 -2 -3 159 -3 159 38 -6 c21 -4 49 -15 62 -25z"/>
<path d="M24230 11655 c-6 -8 -10 -22 -8 -31 3 -19 163 -123 189 -124 25 0
199 110 199 125 0 8 -7 21 -16 29 -22 23 -345 24 -364 1z"/>
<path d="M762 11513 l3 -118 73 -3 c59 -2 72 0 72 13 0 12 -13 15 -60 15 l-60
0 0 105 c0 88 -3 105 -15 105 -13 0 -15 -17 -13 -117z"/>
<path d="M1590 11615 c0 -8 7 -15 15 -15 8 0 15 7 15 15 0 8 -7 15 -15 15 -8
0 -15 -7 -15 -15z"/>
<path d="M2050 11510 l0 -120 70 0 c56 0 70 3 70 15 0 12 -13 15 -55 15 l-55
0 0 105 c0 87 -3 105 -15 105 -12 0 -15 -20 -15 -120z"/>
<path d="M2227 11624 c-9 -10 2 -24 19 -24 8 0 14 7 14 15 0 15 -21 21 -33 9z"/>
<path d="M2490 11510 c0 -73 4 -120 10 -120 6 0 10 12 10 28 0 15 5 34 10 42
10 16 15 11 56 -47 9 -13 25 -23 36 -23 16 0 14 6 -17 46 -19 26 -35 50 -35
54 0 3 14 19 30 35 56 54 30 63 -29 10 -21 -19 -41 -35 -45 -35 -3 0 -6 29 -6
65 0 37 -4 65 -10 65 -6 0 -10 -47 -10 -120z"/>
<path d="M12110 11617 c0 -7 6 -36 14 -63 8 -27 22 -75 31 -107 22 -81 41 -74
71 27 13 44 26 81 29 84 5 6 7 1 35 -95 14 -49 26 -73 36 -73 18 0 17 -2 53
133 27 99 28 107 11 107 -14 0 -22 -16 -35 -72 -26 -106 -30 -110 -49 -45 -9
31 -19 70 -23 87 -4 24 -10 30 -26 28 -16 -2 -25 -20 -43 -86 -12 -46 -25 -86
-27 -88 -3 -3 -10 19 -17 48 -25 112 -31 128 -45 128 -8 0 -15 -6 -15 -13z"/>
<path d="M12600 11510 c0 -100 3 -120 15 -120 13 0 15 20 15 120 0 100 -2 120
-15 120 -12 0 -15 -20 -15 -120z"/>
<path d="M13670 11537 c0 -95 -8 -117 -41 -117 -9 0 -22 7 -29 15 -15 19 -40
20 -40 2 0 -46 96 -65 124 -25 23 32 23 218 1 218 -12 0 -15 -17 -15 -93z"/>
<path d="M13930 11510 c0 -100 3 -120 15 -120 11 0 15 13 15 53 0 58 20 97 50
97 27 0 40 -30 40 -94 0 -43 3 -56 15 -56 12 0 15 14 15 70 0 58 -4 74 -21 91
-17 17 -29 20 -60 15 l-39 -6 0 35 c0 24 -5 35 -15 35 -12 0 -15 -20 -15 -120z"/>
<path d="M14320 11550 c0 -44 4 -80 9 -80 13 0 21 38 21 103 0 44 -3 57 -15
57 -12 0 -15 -16 -15 -80z"/>
<path d="M24520 11523 c-47 -29 -94 -53 -105 -53 -12 0 -57 23 -102 50 -45 28
-86 50 -92 50 -7 0 -11 -29 -11 -79 0 -64 4 -83 21 -105 l20 -26 159 0 c204 0
202 -1 198 125 l-3 91 -85 -53z"/>
<path d="M955 11545 c-53 -52 -19 -155 50 -155 34 0 86 33 72 46 -4 4 -21 0
-38 -10 -28 -16 -32 -16 -54 -2 -45 29 -32 46 35 46 60 0 60 0 60 29 0 35 -40
71 -77 71 -13 0 -35 -11 -48 -25z m83 -17 c25 -25 13 -38 -33 -38 -49 0 -50 1
-35 31 12 21 50 25 68 7z"/>
<path d="M1139 11551 c-29 -23 -18 -39 15 -22 32 18 60 10 64 -17 3 -20 -1
-22 -36 -22 -61 0 -93 -48 -56 -84 18 -18 65 -21 81 -5 8 8 13 8 17 0 17 -27
26 -5 26 63 0 66 -3 77 -22 90 -30 21 -61 20 -89 -3z m81 -101 c0 -29 -48 -47
-68 -26 -21 21 1 46 39 46 22 0 29 -5 29 -20z"/>
<path d="M1299 11510 c-1 -33 -2 -72 -3 -87 0 -14 5 -28 12 -30 9 -4 12 11 12
52 0 65 13 95 40 95 11 0 20 7 20 15 0 18 -14 19 -41 5 -13 -7 -19 -7 -19 0 0
5 -4 10 -10 10 -5 0 -11 -27 -11 -60z"/>
<path d="M1410 11480 c0 -53 4 -90 10 -90 6 0 10 21 10 48 0 59 18 96 49 100
32 5 41 -12 41 -85 0 -49 3 -63 15 -63 12 0 15 14 15 70 0 57 -4 74 -20 90
-23 23 -42 25 -73 9 -16 -9 -22 -9 -25 0 -2 6 -8 11 -13 11 -5 0 -9 -40 -9
-90z"/>
<path d="M1597 11563 c-4 -3 -7 -44 -7 -90 0 -67 3 -83 15 -83 12 0 15 17 15
90 0 83 -5 101 -23 83z"/>
<path d="M1670 11480 c0 -53 4 -90 10 -90 6 0 10 21 10 48 0 54 18 95 43 100
34 7 47 -17 47 -84 0 -50 3 -64 15 -64 12 0 15 14 15 70 0 57 -4 74 -20 90
-23 23 -60 26 -79 8 -11 -10 -14 -10 -18 0 -13 35 -23 2 -23 -78z"/>
<path d="M1879 11560 c-46 -27 -48 -127 -3 -157 20 -13 32 -14 60 -5 25 7 34
7 34 -1 -1 -36 -37 -50 -79 -30 -39 20 -54 8 -22 -18 31 -25 85 -25 111 1 17
17 20 33 20 114 0 87 -9 122 -25 96 -4 -7 -12 -7 -25 0 -23 12 -50 12 -71 0z
m85 -52 c14 -41 -3 -82 -36 -86 -27 -3 -58 27 -58 58 0 58 76 80 94 28z"/>
<path d="M2237 11564 c-4 -4 -7 -45 -7 -91 0 -63 3 -84 13 -81 8 3 13 31 15
83 3 73 -5 105 -21 89z"/>
<path d="M2307 11563 c-4 -3 -7 -44 -7 -90 0 -67 3 -83 15 -83 12 0 15 14 15
63 0 68 10 87 47 87 28 0 32 -8 36 -84 5 -91 27 -85 27 7 0 59 -4 77 -18 90
-21 19 -49 22 -72 7 -9 -5 -19 -5 -26 0 -6 6 -14 7 -17 3z"/>
<path d="M12435 11545 c-34 -33 -35 -102 -2 -133 30 -29 87 -29 112 -2 22 24
12 39 -15 22 -30 -18 -68 -15 -80 7 -5 11 -10 22 -10 25 0 3 29 6 65 6 36 0
65 4 65 9 0 23 -24 73 -40 81 -32 17 -70 11 -95 -15z m85 -20 c17 -21 4 -35
-35 -35 -40 0 -51 13 -29 34 19 20 48 21 64 1z"/>
<path d="M12689 11551 c-31 -25 -34 -108 -5 -140 34 -37 126 -23 126 19 0 24
-13 26 -30 4 -19 -22 -62 -13 -79 17 -12 22 -12 29 0 55 17 34 57 45 75 19 7
-9 20 -15 29 -13 15 3 14 6 -5 31 -26 33 -76 37 -111 8z"/>
<path d="M12865 11545 c-32 -31 -34 -91 -4 -129 16 -20 29 -26 59 -26 30 0 43
6 59 26 47 60 11 154 -59 154 -19 0 -40 -9 -55 -25z m89 -21 c35 -35 12 -104
-34 -104 -47 0 -66 53 -34 98 18 26 46 28 68 6z"/>
<path d="M13034 11561 c-2 -2 -4 -42 -4 -88 0 -67 3 -83 15 -83 11 0 15 12 15
48 0 64 9 90 32 97 34 11 48 -12 48 -81 0 -50 3 -64 15 -64 12 0 15 14 15 63
0 65 11 87 42 87 24 0 28 -13 31 -85 1 -36 7 -60 15 -63 9 -3 12 17 12 77 0
78 -1 82 -26 93 -19 9 -33 9 -56 0 -19 -7 -36 -8 -42 -2 -11 8 -103 9 -112 1z"/>
<path d="M13335 11545 c-33 -32 -35 -105 -5 -135 27 -27 90 -27 115 0 22 24
12 39 -15 22 -38 -24 -90 -9 -90 25 0 9 17 13 60 13 60 0 60 0 60 30 0 64 -79
92 -125 45z m85 -20 c17 -21 4 -35 -34 -35 -40 0 -48 7 -35 31 12 23 52 25 69
4z"/>
<path d="M13763 11548 c-27 -30 -33 -61 -22 -103 11 -40 34 -55 82 -55 49 0
72 29 72 92 0 40 -5 53 -24 69 -32 26 -82 25 -108 -3z m85 -20 c7 -7 12 -28
12 -48 0 -41 -14 -60 -45 -60 -12 0 -26 5 -33 12 -15 15 -16 63 -2 89 12 21
50 25 68 7z"/>
<path d="M14120 11480 c0 -73 3 -90 15 -90 12 0 15 13 15 56 0 63 13 94 38 94
31 0 42 -22 42 -87 0 -49 3 -63 15 -63 24 0 21 141 -3 163 -21 19 -63 22 -79
6 -8 -8 -13 -8 -17 0 -18 28 -26 3 -26 -79z"/>
<path d="M14315 11421 c-8 -15 3 -31 21 -31 9 0 14 7 12 17 -4 20 -24 28 -33
14z"/>
<path d="M0 6240 c0 -39 4 -70 8 -70 12 0 37 30 45 53 8 22 -16 72 -38 80 -13
5 -15 -5 -15 -63z"/>
<path d="M14270 4920 c0 -27 -2 -29 -30 -24 -40 9 -60 -10 -60 -56 0 -46 16
-61 64 -58 l36 3 0 83 c0 45 -2 82 -5 82 -3 0 -5 -13 -5 -30z m-10 -60 c15
-28 -4 -62 -33 -58 -22 3 -34 35 -23 64 8 21 44 17 56 -6z"/>
<path d="M11790 4860 c0 -47 4 -80 10 -80 6 0 10 33 10 80 0 47 -4 80 -10 80
-6 0 -10 -33 -10 -80z"/>
<path d="M13846 4924 c-9 -8 -16 -20 -16 -25 0 -16 39 -49 58 -49 18 0 42 -18
42 -32 0 -4 -9 -12 -21 -18 -16 -9 -26 -8 -46 5 -28 19 -42 13 -23 -10 25 -30
110 -10 110 26 0 16 -39 49 -59 49 -22 0 -45 25 -36 40 9 14 62 13 68 -2 2 -7
8 -10 12 -6 14 13 -16 38 -46 38 -15 0 -35 -7 -43 -16z"/>
<path d="M12101 4918 c0 -9 -7 -19 -13 -21 -10 -4 -10 -7 -1 -14 6 -5 13 -28
15 -53 2 -36 7 -46 23 -49 19 -3 19 -3 3 16 -23 25 -24 83 -3 83 8 0 15 5 15
10 0 6 -6 10 -14 10 -8 0 -17 8 -19 18 -4 15 -5 15 -6 0z"/>
<path d="M12509 4913 c-3 -29 2 -97 7 -115 6 -19 34 -25 34 -8 0 6 -4 10 -10
10 -15 0 -12 77 3 84 10 5 10 7 0 12 -7 3 -13 12 -13 20 0 20 -20 17 -21 -3z"/>
<path d="M13983 4916 c-12 -21 -5 -105 10 -123 5 -7 17 -13 26 -13 14 1 14 2
-1 14 -21 15 -25 82 -5 89 8 4 9 8 1 14 -6 4 -13 15 -16 23 -4 12 -6 11 -15
-4z"/>
<path d="M14580 4916 c0 -8 -6 -17 -12 -20 -10 -5 -10 -7 0 -12 7 -3 12 -24
12 -50 0 -31 5 -46 15 -51 9 -3 19 -2 23 2 4 4 1 10 -5 12 -8 3 -13 21 -13 43
0 21 6 41 13 44 10 5 10 7 0 12 -7 3 -13 12 -13 20 0 8 -4 14 -10 14 -5 0 -10
-6 -10 -14z"/>
<path d="M11852 4835 c0 -33 3 -46 5 -30 8 66 13 75 38 75 20 0 25 -6 31 -34
3 -19 3 -39 0 -45 -4 -5 -2 -12 4 -16 15 -10 13 90 -3 104 -7 6 -28 9 -45 8
l-32 -2 2 -60z"/>
<path d="M11981 4882 c-12 -23 -3 -38 33 -51 15 -6 26 -17 23 -24 -4 -13 -21
-14 -49 -2 -11 4 -18 3 -18 -4 0 -6 11 -13 24 -17 66 -16 92 36 31 62 -47 19
-46 38 1 31 30 -5 34 -4 24 8 -17 21 -57 19 -69 -3z"/>
<path d="M12171 4835 c1 -59 2 -60 9 -16 4 29 15 50 31 62 l24 18 -32 -2 -33
-2 1 -60z"/>
<path d="M12250 4853 c0 -63 8 -74 53 -71 l37 3 -1 60 -2 60 -6 -48 c-7 -49
-23 -69 -47 -60 -15 6 -29 66 -20 82 4 5 2 12 -4 16 -6 4 -10 -12 -10 -42z"/>
<path d="M12387 4882 c-10 -10 -17 -30 -17 -44 0 -46 62 -77 89 -44 9 11 4 13
-26 12 -37 -1 -38 0 -38 34 0 29 4 36 23 38 13 2 30 -2 38 -8 17 -15 19 1 2
18 -18 18 -53 15 -71 -6z"/>
<path d="M12586 4878 c-9 -12 -16 -29 -16 -38 0 -51 77 -83 100 -41 37 69 -41
141 -84 79z m69 -38 c0 -30 -3 -35 -27 -38 -30 -4 -44 23 -33 59 5 15 14 19
33 17 24 -3 27 -8 27 -38z"/>
<path d="M12710 4837 c0 -36 4 -56 10 -52 6 3 10 24 10 47 0 31 4 41 20 45 30
8 24 20 -10 19 -30 -1 -30 -1 -30 -59z"/>
<path d="M12802 4888 c-21 -21 -13 -38 23 -54 19 -8 35 -18 35 -23 0 -15 -32
-22 -47 -10 -15 13 -28 6 -18 -10 9 -15 58 -14 73 1 21 21 13 39 -23 54 -43
18 -46 38 -5 32 19 -3 29 -1 27 6 -5 16 -50 19 -65 4z"/>
<path d="M14058 4894 c-13 -13 -9 -91 5 -103 8 -6 30 -10 50 -9 l37 1 0 53 c0
29 -4 56 -10 59 -6 4 -10 -11 -10 -39 0 -34 -5 -48 -19 -55 -26 -14 -39 3 -43
58 -2 23 -6 39 -10 35z"/>
<path d="M14330 4885 c-17 -21 -17 -69 0 -90 15 -18 71 -17 77 2 3 8 -6 10
-30 6 -26 -4 -36 -1 -40 11 -5 13 1 16 33 16 46 0 53 8 37 41 -15 29 -58 37
-77 14z m68 -22 c2 -9 -7 -13 -27 -13 -21 0 -31 5 -31 16 0 19 51 16 58 -3z"/>
<path d="M14444 4891 c-8 -9 -4 -111 5 -111 6 0 11 21 13 48 3 43 5 47 31 50
26 3 27 2 27 -47 0 -28 5 -51 10 -51 15 0 12 96 -3 109 -12 10 -73 11 -83 2z"/>
<path d="M14663 4894 c-26 -11 -14 -45 22 -60 19 -8 35 -18 35 -23 0 -15 -32
-22 -47 -10 -15 13 -28 6 -18 -10 9 -16 60 -14 74 3 16 20 4 43 -30 55 -39 13
-38 35 1 29 19 -3 29 -1 27 6 -4 12 -45 18 -64 10z"/>
<path d="M8884 3462 c-42 -34 -44 -48 -44 -382 l0 -322 34 -34 34 -34 695 0
c428 0 706 4 721 10 14 5 35 24 46 42 19 32 20 47 18 356 l-3 324 -33 29 -32
29 -708 0 c-655 0 -709 -2 -728 -18z m618 -309 c2 -23 7 -27 26 -25 38 6 52
-15 52 -74 0 -67 -18 -72 -22 -7 -2 37 -7 49 -22 51 -24 5 -36 -14 -36 -60 0
-21 -4 -38 -10 -38 -6 0 -10 37 -10 90 0 50 4 90 9 90 5 0 11 -12 13 -27z
m-193 -4 c17 -16 20 -24 11 -33 -8 -8 -15 -7 -24 7 -20 27 -65 22 -76 -9 -23
-59 20 -109 67 -79 28 19 42 12 27 -13 -17 -27 -86 -28 -110 -1 -26 28 -26 99
0 128 25 28 75 28 105 0z m721 -64 c0 -69 -3 -85 -15 -85 -12 0 -15 14 -15 65
0 65 -6 75 -28 53 -9 -9 -12 -8 -12 4 0 9 10 24 22 32 43 30 48 22 48 -69z
m-167 55 c19 -23 22 -40 7 -40 -5 0 -10 -15 -10 -34 0 -19 5 -38 10 -41 18
-11 10 -26 -12 -23 -20 3 -24 11 -28 53 -5 46 -7 50 -30 47 -31 -3 -40 -18
-40 -64 0 -21 -4 -38 -10 -38 -6 0 -10 28 -10 65 0 56 2 65 18 63 45 -3 72 3
72 17 0 21 12 19 33 -5z m-423 -30 c57 -57 -22 -147 -82 -93 -10 9 -18 30 -18
46 0 60 59 88 100 47z m264 -2 c47 -66 -27 -145 -86 -91 -39 35 -10 113 42
113 18 0 34 -8 44 -22z"/>
<path d="M9374 3086 c-11 -29 0 -51 26 -51 21 0 25 5 25 30 0 24 -5 31 -23 33
-13 2 -24 -3 -28 -12z"/>
<path d="M9634 3086 c-11 -29 0 -51 26 -51 21 0 25 5 25 30 0 24 -5 31 -23 33
-13 2 -24 -3 -28 -12z"/>
<path d="M10658 3451 l-33 -29 -3 -318 c-3 -339 -1 -358 46 -394 24 -19 44
-20 749 -20 l725 0 34 34 34 34 0 321 c0 349 -2 365 -55 389 -19 9 -209 12
-745 12 l-720 0 -32 -29z m632 -301 c0 -27 2 -30 25 -24 40 10 55 -11 55 -73
0 -69 -24 -69 -28 0 -2 38 -7 47 -21 47 -22 0 -31 -19 -31 -66 0 -19 -4 -34
-10 -34 -6 0 -10 37 -10 90 0 53 4 90 10 90 6 0 10 -14 10 -30z m-198 3 c19
-17 24 -43 9 -43 -5 0 -14 7 -21 15 -18 21 -57 19 -70 -4 -16 -30 -12 -59 10
-81 24 -24 34 -25 54 -5 15 15 36 20 36 8 0 -19 -37 -43 -65 -43 -44 0 -70 31
-70 85 0 53 26 85 68 85 17 0 39 -7 49 -17z m750 0 c25 -22 23 -32 -12 -80
l-31 -42 27 -3 c15 -2 29 -9 32 -15 3 -9 -12 -13 -52 -13 -35 0 -56 4 -56 11
0 7 18 31 40 55 45 49 48 59 20 74 -15 8 -21 6 -30 -10 -13 -25 -30 -26 -30
-2 0 41 57 57 92 25z m-191 -14 c19 -19 19 -22 5 -38 -20 -22 -21 -55 -1 -71
22 -18 18 -32 -7 -28 -19 2 -23 10 -26 48 -4 55 -11 64 -45 51 -24 -9 -27 -16
-27 -56 0 -34 -4 -45 -15 -45 -13 0 -15 11 -13 62 l3 63 40 2 c22 2 44 10 50
18 12 19 11 19 36 -6z m-426 -23 c22 -16 26 -76 6 -100 -17 -20 -65 -21 -85 0
-9 8 -16 29 -16 46 0 57 51 86 95 54z m259 -2 c22 -22 24 -77 4 -101 -15 -18
-63 -16 -82 3 -21 20 -20 73 1 96 20 22 56 23 77 2z"/>
<path d="M11164 3086 c-10 -26 1 -51 22 -54 24 -3 38 20 29 49 -7 22 -43 25
-51 5z"/>
<path d="M11418 3083 c-8 -33 3 -53 28 -53 21 0 24 5 24 35 0 30 -3 35 -24 35
-14 0 -25 -7 -28 -17z"/>
<path d="M12491 3464 c-47 -33 -51 -62 -51 -380 0 -253 2 -301 16 -330 32 -67
-1 -64 786 -64 689 0 714 1 745 20 21 13 35 31 42 57 17 61 14 605 -3 647 -29
70 19 66 -786 66 -655 0 -728 -2 -749 -16z m619 -313 c0 -25 3 -28 25 -23 40
7 55 -13 55 -74 0 -41 -4 -54 -15 -54 -11 0 -15 12 -15 51 0 47 -2 50 -22 47
-20 -3 -23 -10 -26 -50 -2 -34 -7 -48 -18 -48 -11 0 -14 17 -14 83 0 46 3 87
7 90 14 14 23 6 23 -22z m-198 2 c19 -17 24 -43 9 -43 -5 0 -14 7 -21 15 -7 8
-23 15 -36 15 -44 0 -61 -77 -23 -103 21 -15 59 -12 59 4 0 5 7 9 15 9 19 0
19 -9 -2 -32 -25 -28 -77 -24 -102 8 -43 55 -12 144 51 144 17 0 40 -7 50 -17z
m750 6 c16 -8 19 -17 14 -40 -3 -16 -1 -40 4 -53 14 -38 -13 -68 -57 -64 -20
2 -41 10 -47 20 -15 24 -1 33 25 14 16 -11 27 -12 40 -5 23 12 14 37 -14 41
-29 4 -33 26 -5 30 33 5 37 38 4 38 -14 0 -26 -4 -26 -10 0 -5 -7 -10 -15 -10
-19 0 -19 14 1 34 18 19 47 20 76 5z m-192 -19 c22 -22 26 -40 10 -40 -5 0
-10 -15 -10 -34 0 -19 5 -38 10 -41 18 -11 10 -26 -12 -23 -20 3 -23 10 -26
50 -3 50 -14 60 -49 47 -19 -7 -23 -16 -23 -55 0 -32 -4 -44 -12 -41 -9 2 -13
24 -13 63 l0 59 39 0 c26 1 43 7 50 18 13 21 12 21 36 -3z m-426 -26 c19 -18
21 -85 4 -102 -17 -17 -64 -15 -82 4 -21 20 -20 73 1 96 20 22 56 23 77 2z
m260 0 c43 -42 21 -114 -34 -114 -37 0 -60 24 -60 62 0 58 57 89 94 52z"/>
<path d="M12987 3093 c-12 -11 -8 -61 6 -66 24 -8 37 6 37 39 0 26 -4 34 -18
34 -10 0 -22 -3 -25 -7z"/>
<path d="M13247 3093 c-4 -3 -7 -19 -7 -35 0 -23 4 -28 24 -28 26 0 40 23 31
51 -6 19 -35 26 -48 12z"/>
<path d="M14321 3466 c-49 -27 -50 -39 -51 -384 l0 -324 34 -34 34 -34 725 0
c705 0 725 1 749 20 47 36 49 55 46 394 l-3 318 -33 29 -32 29 -723 0 c-580
-1 -727 -3 -746 -14z m617 -318 c2 -20 7 -24 27 -21 32 7 57 -33 53 -83 -5
-57 -26 -55 -30 3 -3 41 -6 48 -25 51 -20 3 -22 -2 -25 -44 -2 -27 -8 -49 -15
-52 -10 -3 -13 19 -13 88 0 69 3 91 13 88 6 -3 13 -16 15 -30z m-200 2 c12
-12 22 -25 22 -30 0 -16 -30 -11 -36 5 -4 9 -19 15 -35 15 -22 0 -32 -6 -39
-26 -23 -59 20 -109 66 -79 34 22 48 15 29 -13 -22 -30 -84 -31 -111 -1 -29
32 -26 105 5 130 30 25 72 24 99 -1z m752 -35 c0 -30 5 -55 10 -55 6 0 10 -7
10 -15 0 -8 -4 -15 -10 -15 -5 0 -10 -7 -10 -15 0 -8 -7 -15 -15 -15 -8 0 -15
7 -15 15 0 10 -10 15 -34 15 -19 0 -37 4 -40 8 -9 16 66 132 86 132 15 0 18
-9 18 -55z m-200 30 c0 -8 5 -15 10 -15 6 0 10 -7 10 -15 0 -8 -4 -15 -10 -15
-14 0 -13 -63 2 -78 16 -16 4 -25 -21 -17 -17 5 -21 15 -21 50 0 49 -6 56 -35
45 -15 -5 -21 -19 -25 -50 -3 -24 -11 -45 -17 -48 -10 -3 -13 14 -13 63 0 57
2 66 18 64 45 -4 72 2 72 16 0 8 7 15 15 15 8 0 15 -7 15 -15z m-420 -35 c39
-39 15 -110 -38 -110 -54 0 -80 60 -46 108 19 28 57 29 84 2z m262 3 c22 -20
23 -70 1 -95 -23 -25 -68 -23 -87 4 -46 66 28 144 86 91z"/>
<path d="M15437 3090 c-18 -29 -18 -30 2 -30 17 0 21 6 21 30 0 17 -1 30 -3
30 -1 0 -11 -13 -20 -30z"/>
<path d="M14804 3086 c-11 -29 0 -51 26 -51 21 0 25 5 25 30 0 24 -5 31 -23
33 -13 2 -24 -3 -28 -12z"/>
<path d="M15064 3086 c-11 -29 0 -51 26 -51 21 0 25 5 25 30 0 24 -5 31 -23
33 -13 2 -24 -3 -28 -12z"/>
<path d="M16128 3451 l-33 -29 -3 -318 c-3 -339 -1 -358 46 -394 24 -19 44
-20 749 -20 l725 0 34 34 34 34 0 322 c0 334 -2 348 -44 382 -19 16 -74 18
-748 18 l-728 0 -32 -29z m638 -300 c5 -22 10 -27 25 -24 33 9 49 -15 49 -73
0 -67 -18 -72 -22 -6 -3 40 -6 47 -25 50 -20 3 -22 -2 -25 -44 -2 -27 -8 -49
-15 -52 -10 -3 -13 19 -13 87 0 56 4 91 10 91 6 0 13 -13 16 -29z m-197 -2
c17 -16 20 -24 11 -33 -8 -8 -14 -7 -21 7 -6 10 -22 17 -40 17 -22 0 -32 -6
-39 -26 -23 -59 20 -109 66 -79 34 22 48 15 29 -13 -22 -30 -84 -31 -111 -1
-24 26 -24 87 -1 122 22 34 73 37 106 6z m756 6 c0 -5 -17 -11 -37 -13 -46 -4
-54 -32 -9 -32 16 0 34 -7 41 -15 16 -20 16 -61 0 -80 -17 -21 -79 -16 -94 7
-15 25 -1 32 27 13 23 -15 26 -15 41 0 12 12 13 21 6 36 -11 20 -35 25 -45 9
-13 -21 -35 -10 -35 18 0 63 9 73 59 70 25 -2 46 -7 46 -13z m-202 -15 c19
-23 22 -40 7 -40 -5 0 -10 -15 -10 -34 0 -19 5 -38 10 -41 18 -11 10 -26 -12
-23 -20 3 -24 11 -28 53 -5 46 -7 50 -30 47 -31 -3 -40 -18 -40 -64 0 -21 -4
-38 -10 -38 -6 0 -10 28 -10 65 0 47 4 65 13 64 41 -5 77 2 77 16 0 21 12 19
33 -5z m-423 -30 c24 -24 26 -57 4 -88 -30 -43 -104 -17 -104 37 0 62 59 92
100 51z m264 -2 c33 -46 7 -108 -44 -108 -32 0 -60 31 -60 65 0 34 28 65 60
65 18 0 34 -8 44 -22z"/>
<path d="M16634 3086 c-11 -29 0 -51 26 -51 21 0 25 5 25 30 0 24 -5 31 -23
33 -13 2 -24 -3 -28 -12z"/>
<path d="M16894 3086 c-11 -29 0 -51 26 -51 21 0 25 5 25 30 0 24 -5 31 -23
33 -13 2 -24 -3 -28 -12z"/>
</g>
</svg>
